<?xml version="1.0" encoding="UTF-8"?>
<svg version="1.1" xmlns="http://www.w3.org/2000/svg" width="512" height="512">
<path d="M0 0 C2.02153811 -0.00407058 4.043074 -0.00941518 6.06460571 -0.01593018 C11.52951778 -0.02955254 16.99425904 -0.02432589 22.45917392 -0.01479292 C28.19373946 -0.00716891 33.92829091 -0.01424962 39.66285706 -0.01895142 C49.29202891 -0.02440143 58.92113162 -0.01723759 68.55029297 -0.00292969 C79.66171642 0.01339069 90.77297466 0.00810966 101.88439411 -0.0084089 C111.44567283 -0.02205079 121.00690199 -0.02393009 130.5681873 -0.0160929 C136.26935186 -0.01143064 141.97043894 -0.0107515 147.67159843 -0.02070236 C153.03398823 -0.02940896 158.39616639 -0.02328289 163.75853348 -0.00601959 C165.71920611 -0.00207422 167.67989674 -0.00315511 169.64056206 -0.00980759 C191.74265936 -0.07784865 209.23693589 4.81910769 225.34204102 20.76708984 C235.43234961 31.495388 240.01691441 43.27754255 244.75219727 56.95068359 C245.39503702 58.78074474 246.0387752 60.61049051 246.68334961 62.43994141 C248.41666101 67.37051394 250.13494356 72.30618472 251.84832764 77.24371338 C252.96766361 80.46876063 254.08939366 83.69296703 255.21166992 86.91699219 C258.22052469 95.56314626 261.22712324 104.21005988 264.21630859 112.86303711 C264.72944359 114.34810509 264.72944359 114.34810509 265.25294495 115.86317444 C265.91415282 117.7774904 266.57484457 119.69198473 267.23497009 121.60667419 C268.64360402 125.68382218 270.06329904 129.75515883 271.5402832 133.80810547 C271.77834686 134.46244568 272.01641052 135.11678589 272.26168823 135.79095459 C272.87724957 137.47324412 273.49969336 139.15301112 274.12280273 140.83251953 C274.93969727 143.38818359 274.93969727 143.38818359 274.93969727 146.38818359 C275.52106445 146.65373047 276.10243164 146.91927734 276.70141602 147.19287109 C291.02051607 154.83972034 299.18174658 170.0917407 303.95922852 184.87255859 C305.39793012 190.03124962 306.06378105 194.88579642 306.08686829 200.23674011 C306.09402359 201.38183044 306.10117889 202.52692078 306.10855103 203.70671082 C306.11123993 204.94890884 306.11392883 206.19110687 306.11669922 207.47094727 C306.12327042 208.79039337 306.12984161 210.10983948 306.13661194 211.4692688 C306.15756141 215.83155114 306.16800577 220.19383347 306.17797852 224.55615234 C306.18202948 226.06345449 306.1861465 227.57075646 306.1903286 229.07805824 C306.20936026 236.16178556 306.22359551 243.24550258 306.23194057 250.32925051 C306.24170566 258.48166601 306.26801449 266.63380947 306.30844146 274.78612918 C306.33868682 281.10399411 306.35341738 287.42178142 306.35672158 293.7397173 C306.35906242 297.50550242 306.36789598 301.27099625 306.39318275 305.03670311 C306.41661688 308.58353006 306.42063604 312.12987706 306.41042137 315.67676163 C306.40969708 317.58188772 306.42867956 319.48699029 306.44848633 321.39201355 C306.37718601 333.29477249 303.49380142 341.7326855 295.16235352 350.29443359 C288.35563895 356.70638264 280.7454974 359.47361131 271.43969727 359.76318359 C259.88719523 359.3721257 252.08239245 354.87825313 244.18969727 346.70068359 C236.85816018 337.68223429 236.38696921 327.93073001 236.68969727 316.70068359 C236.70774414 315.41484375 236.72579102 314.12900391 236.74438477 312.80419922 C236.79106842 309.66472354 236.85653634 306.52686869 236.93969727 303.38818359 C236.11945068 303.54359619 235.2992041 303.69900879 234.45410156 303.85913086 C230.53890491 304.44851823 226.65911372 304.68519084 222.70922852 304.85302734 C221.46501381 304.90942635 221.46501381 304.90942635 220.19566345 304.96696472 C217.38137684 305.09186294 214.56685994 305.20957949 211.75219727 305.32568359 C210.75828979 305.36731628 209.76438232 305.40894897 208.74035645 305.45184326 C124.27051973 308.94788714 40.09375863 308.76758919 -44.37280273 305.32568359 C-45.37298431 305.28566223 -46.37316589 305.24564087 -47.40365601 305.20440674 C-50.16054168 305.09229572 -52.91708002 304.9741241 -55.67358398 304.85302734 C-56.46258087 304.82078568 -57.25157776 304.78854401 -58.06448364 304.75532532 C-61.81930672 304.58135033 -65.39980652 304.260678 -69.06030273 303.38818359 C-69.04459229 304.08790283 -69.02888184 304.78762207 -69.01269531 305.50854492 C-68.94957943 308.73917255 -68.91107193 311.96966978 -68.87280273 315.20068359 C-68.84766602 316.30089844 -68.8225293 317.40111328 -68.79663086 318.53466797 C-68.68754667 330.86118092 -71.15037501 340.9645682 -79.68920898 350.13818359 C-87.39972086 357.29411109 -96.53428884 359.77838959 -106.82983398 359.66552734 C-116.28394001 358.85386891 -124.42841501 354.46220606 -130.77905273 347.50537109 C-136.90360629 339.84967915 -139.17626194 331.65695585 -139.1940155 321.89476013 C-139.19828049 320.82828751 -139.20254547 319.76181488 -139.2069397 318.6630249 C-139.20648651 317.50812561 -139.20603333 316.35322632 -139.20556641 315.16333008 C-139.20892502 313.93487869 -139.21228363 312.70642731 -139.21574402 311.44075012 C-139.22360223 308.08081661 -139.22692089 304.72094492 -139.2275598 301.3610065 C-139.22827261 299.25594302 -139.23041139 297.15088594 -139.23305702 295.04582405 C-139.24230274 287.68459795 -139.24639324 280.32338992 -139.24560547 272.9621582 C-139.24500623 266.12990672 -139.2555297 259.29773459 -139.27134913 252.46550316 C-139.28448866 246.57817513 -139.28978663 240.69087282 -139.28915006 234.80353028 C-139.28889677 231.29711208 -139.29165299 227.79076432 -139.30232811 224.28436089 C-139.31394216 220.36247635 -139.30922331 216.44069767 -139.30322266 212.51879883 C-139.30884216 211.37806915 -139.31446167 210.23733948 -139.32025146 209.06204224 C-139.23608431 187.26598152 -133.06657672 169.96607882 -118.46655273 153.67724609 C-116.49392768 151.80069044 -114.88355037 150.64133671 -112.61352539 149.23681641 C-108.63359698 146.40289157 -107.23357566 143.08707521 -105.80249023 138.52099609 C-105.38663162 137.30188034 -105.38663162 137.30188034 -104.96237183 136.05813599 C-104.33278468 134.21063405 -103.71283621 132.3598295 -103.10070801 130.50646973 C-101.755643 126.4750623 -100.34348072 122.46845372 -98.93162155 118.46004105 C-97.29946586 113.82484316 -95.67792743 109.18608278 -94.06420898 104.54443359 C-93.82758167 103.86395336 -93.59095436 103.18347313 -93.34715652 102.48237228 C-92.62640917 100.40935436 -91.9058511 98.3362707 -91.18530273 96.26318359 C-88.14915783 87.52993593 -85.10926795 78.79806524 -82.04916763 70.07317734 C-80.54394872 65.77912423 -79.05573002 61.47941004 -77.57104492 57.17822266 C-76.79466765 54.95892281 -76.01768386 52.73983501 -75.23999023 50.52099609 C-74.90387726 49.53517548 -74.56776428 48.54935486 -74.22146606 47.53366089 C-67.69451617 29.07814052 -55.19184812 14.55586031 -37.49780273 6.01318359 C-34.55639648 4.67724609 -34.55639648 4.67724609 -31.06030273 3.38818359 C-30.38630401 3.13458258 -29.71230528 2.88098156 -29.01788235 2.61969566 C-19.50334006 -0.47474638 -9.88703583 -0.03350851 0 0 Z M-25.06030273 39.38818359 C-25.71730856 39.75557018 -26.37431438 40.12295677 -27.05122948 40.50147629 C-36.03865484 45.86089349 -40.21192007 56.21092201 -43.32202148 65.69677734 C-43.85893364 67.26782982 -43.85893364 67.26782982 -44.4066925 68.87062073 C-45.53550305 72.18408256 -46.64216807 75.50442576 -47.74780273 78.82568359 C-48.49955672 81.04819715 -49.25280038 83.27020741 -50.00756836 85.49169922 C-51.07527512 88.63526917 -52.14097357 91.7793279 -53.19474792 94.92759705 C-55.12086069 100.6788668 -57.1376551 106.38319677 -59.27229309 112.0606842 C-60.289517 115.06520076 -60.6432595 117.25479096 -60.06030273 120.38818359 C-57.5523856 125.30755951 -55.18358796 127.42304686 -50.06030273 129.38818359 C-47.3003312 129.33299143 -44.93313624 129.13752171 -42.23999023 128.70068359 C-40.72149062 128.48805031 -39.20293431 128.27582166 -37.68432617 128.06396484 C-36.52966858 127.8930835 -36.52966858 127.8930835 -35.35168457 127.71875 C-31.80662644 127.20732187 -28.25100969 126.79881281 -24.69311523 126.38818359 C-23.29303515 126.22270155 -21.89297018 126.05709158 -20.49291992 125.89135742 C-8.28034106 124.45990597 3.92493202 123.11012785 16.18969727 122.20068359 C17.14859863 122.12914062 18.1075 122.05759766 19.09545898 121.98388672 C22.37581337 121.75807118 25.65646054 121.56772056 28.93969727 121.38818359 C29.70071747 121.34581573 30.46173767 121.30344788 31.24581909 121.25979614 C48.32930733 120.3353235 65.39656986 120.18579112 82.50219727 120.20068359 C83.19186207 120.20095047 83.88152687 120.20121735 84.59209061 120.20149231 C125.72080042 120.22141228 167.26861431 121.61971691 207.89501953 128.61254883 C212.49574285 129.36960372 216.38261006 129.43851596 220.93969727 128.38818359 C224.80398568 125.11193906 226.77785303 123.11351369 227.25317383 118.04638672 C227.16361178 111.98272931 224.9297617 106.51327648 222.92407227 100.85693359 C222.51183411 99.66644409 222.09959595 98.47595459 221.67486572 97.24938965 C220.80291511 94.73921509 219.92655693 92.23119513 219.04174805 89.72558594 C217.91560832 86.53592343 216.80511273 83.34110084 215.70009995 80.14406586 C214.63527197 77.06696998 213.56084058 73.99324407 212.48657227 70.91943359 C212.0916156 69.78276245 211.69665894 68.64609131 211.28973389 67.47497559 C207.08167491 55.57663365 202.46172598 44.38319303 190.62719727 38.38818359 C185.30457235 35.98172209 180.94152646 35.23959303 175.12937927 35.24101257 C174.32532829 35.23733589 173.5212773 35.2336592 172.69286114 35.22987109 C169.98924476 35.21882767 167.28566681 35.21498926 164.58203125 35.21118164 C162.64709857 35.20491736 160.71216709 35.1982706 158.77723694 35.19126892 C152.41343017 35.17021763 146.04962313 35.1598639 139.68579102 35.14990234 C137.49466502 35.14585485 135.30353915 35.14173793 133.11241341 35.13755226 C122.81598404 35.11849636 112.51956186 35.10426752 102.22311825 35.09594029 C90.34254766 35.08617319 78.46216364 35.05986901 66.58165878 35.0194394 C57.39680304 34.9892575 48.2120007 34.97446934 39.02709633 34.97115928 C33.54267832 34.96881069 28.05845953 34.95987528 22.57409477 34.9346981 C17.41042618 34.91137696 12.2470874 34.9072005 7.08337975 34.91745949 C5.1928116 34.91795401 3.302227 34.91165825 1.41170883 34.89790344 C-12.31836529 34.69475959 -12.31836529 34.69475959 -25.06030273 39.38818359 Z M-81.06030273 197.38818359 C-86.16990997 204.6256644 -87.24477418 211.67226166 -86.06030273 220.38818359 C-83.9539754 227.87184071 -78.40077489 233.31709086 -71.93530273 237.32568359 C-64.71462076 239.9056576 -56.45552413 239.45827871 -49.56030273 236.26318359 C-42.75641877 232.34846916 -38.99932369 226.8526972 -36.37280273 219.45068359 C-35.24966487 212.03797371 -36.36245667 205.42781553 -40.53686523 199.17724609 C-45.30480662 193.32073361 -50.68486857 189.97809755 -58.06030273 188.38818359 C-66.73961118 187.52025275 -75.13924903 191.05403312 -81.06030273 197.38818359 Z M19.56469727 194.88818359 C19.08258789 195.47599609 18.60047852 196.06380859 18.10375977 196.66943359 C15.48211199 200.54032293 15.2323976 204.87914824 15.93969727 209.38818359 C18.194958 214.76386974 21.50976692 218.9939174 26.93969727 221.38818359 C30.59355977 221.97204613 34.20466453 221.9349243 37.89868164 221.90576172 C38.99207352 221.912771 40.08546539 221.91978027 41.21199036 221.92700195 C44.81940244 221.94457973 48.42602746 221.93295918 52.03344727 221.91943359 C54.54398753 221.92212855 57.05452678 221.926011 59.56506348 221.93103027 C64.82397464 221.93692504 70.08268184 221.92874537 75.34155273 221.90966797 C81.4117879 221.88790078 87.48148559 221.89495289 93.55170774 221.91697359 C99.40370012 221.93734869 105.25548906 221.93514648 111.10749817 221.92344666 C113.59218929 221.92077945 116.07689413 221.92404888 118.56156921 221.93336487 C122.03498604 221.94353017 125.50737273 221.92802785 128.98071289 221.90576172 C130.51916618 221.9179071 130.51916618 221.9179071 132.08869934 221.93029785 C139.51972558 221.84210464 142.89483049 220.43305036 148.18969727 215.13818359 C151.22061569 210.37531179 152.24634089 206.3643314 151.37719727 200.76318359 C148.92361719 195.00260429 145.92890507 191.35246233 140.05056763 188.98521042 C135.88016611 187.80567727 131.64601303 187.97315777 127.34204102 188 C126.29887726 187.99474304 125.2557135 187.98948608 124.18093872 187.98406982 C120.74620416 187.97090847 117.31193623 187.97959452 113.87719727 187.98974609 C111.48258373 187.98772426 109.0879708 187.9848119 106.69335938 187.98104858 C101.68003464 187.97663045 96.66687049 187.98304004 91.65356445 187.99707031 C85.2343416 188.01416165 78.81549507 188.00431777 72.39628601 187.98635292 C67.45313696 187.97550143 62.51007681 187.97896775 57.56692505 187.9867363 C55.20028641 187.98873451 52.83363964 187.98629235 50.4670105 187.97929764 C47.15690797 187.97166093 43.84741106 187.98331917 40.53735352 188 C39.563638 187.99392731 38.58992249 187.98785461 37.58670044 187.9815979 C30.45200688 188.04805177 24.27335047 188.95684143 19.56469727 194.88818359 Z M209.93969727 196.38818359 C204.5181434 204.00307264 203.14548099 210.02110345 203.93969727 219.38818359 C205.69970196 227.02279855 210.65641495 231.96975404 216.93969727 236.38818359 C223.36011114 239.58793383 230.99913839 239.59403768 237.79907227 237.51318359 C244.87972227 234.25179329 249.71692015 229.69374529 252.81469727 222.51318359 C255.17566934 215.16165379 254.38388031 208.75034984 251.25219727 201.74755859 C247.33130777 194.69929295 242.17891442 191.44015184 234.56860352 189.04833984 C225.78788967 186.84337604 216.28244988 189.86420948 209.93969727 196.38818359 Z " fill="#EF5A00" transform="translate(173.060302734375,68.61181640625)"/>
</svg>
