<?xml version="1.0" encoding="UTF-8"?>
<svg version="1.1" xmlns="http://www.w3.org/2000/svg" width="348" height="355">
<path d="M0 0 C114.84 0 229.68 0 348 0 C348 117.15 348 234.3 348 355 C233.16 355 118.32 355 0 355 C0 237.85 0 120.7 0 0 Z " fill="#F9F9F8" transform="translate(0,0)"/>
<path d="M0 0 C114.84 0 229.68 0 348 0 C348 117.15 348 234.3 348 355 C233.16 355 118.32 355 0 355 C0 237.85 0 120.7 0 0 Z M158.78125 27.97265625 C153.0682568 34.47494457 147.53665165 38.45241907 138.80078125 39.31640625 C130.54751711 39.5978707 123.57569904 38.30358855 116 35 C115.67 34.67 115.34 34.34 115 34 C110.65478156 33.34858735 106.09610985 32.88901838 102.11328125 35 C97.77453315 39.37291147 96.54182894 45.25450968 94.88647461 51.00708008 C92.40581895 59.44445063 88.87545883 65.52238955 81.125 70.02734375 C74.67146794 72.98125824 68.5224785 73.58193024 61.54492188 74.12304688 C55.98640902 74.64022619 52.37003768 75.7934132 48.1875 79.6875 C46.14644834 83.66217954 46.55714389 87.98254441 47.4921875 92.2421875 C49.15499645 101.2725192 49.54156435 111.82253109 44.66796875 119.86328125 C39.37882651 126.63883348 33.02102557 130.87843601 25.3828125 134.67578125 C21.78110157 136.67738781 20.31052859 138.06841422 19 142 C18.2736084 148.44379643 20.12145205 151.4938572 23.8125 156.4375 C30.39463742 165.42338517 33.03581522 172.71111528 32 184 C30.93163446 190.80077852 27.24019787 195.9363565 23.13696289 201.30834961 C20.49387134 204.85570001 19.27537134 207.57570041 19 212 C19.95404623 216.1097376 20.71440936 218.04709455 24.11328125 220.56640625 C26.70881521 222.11242415 29.34487441 223.55908525 32 225 C40.05902113 229.86079542 46.0955552 234.63775088 49 244 C49.35619037 246.78720665 49.33310153 249.50734752 49.25 252.3125 C49.23573975 253.42963379 49.23573975 253.42963379 49.22119141 254.56933594 C49.1455476 258.66478084 48.87664899 262.68174903 48.375 266.75 C47.80474669 271.55642076 48.84949857 274.19921515 51.4375 278.25 C53.95774605 281.07267558 56.77029781 281.14594757 60.3515625 281.39453125 C61.62966797 281.49797852 61.62966797 281.49797852 62.93359375 281.60351562 C64.7036904 281.74096145 66.47456037 281.86884193 68.24609375 281.98632812 C76.32906058 282.67101722 84.20819161 285.05165625 90 291 C94.07611675 296.42059504 96.32831629 301.68812119 98 308.25 C99.60299561 314.28751214 100.76831707 317.47867495 106 321 C113.6102265 323.49300523 119.01535522 320.17307962 126 317 C134.69781421 313.90416782 141.81811895 314.27916862 150.36328125 317.67578125 C157.03905922 321.0285053 161.72348627 326.57343329 166.359375 332.30078125 C168.66631854 334.69011563 170.73135251 335.7926724 174.0078125 336.328125 C179.64416395 336.12014155 182.28283827 334.22900401 186.25 330.25 C187.84421596 328.50990807 189.42760403 326.7598339 191 325 C197.30984669 318.35754123 203.31154503 314.75852635 212.625 314.3125 C219.15867472 314.51980478 224.56268796 316.29351017 230.49462891 318.86450195 C234.52111758 320.59800046 237.61551642 321.44598615 242 321 C247.25111644 318.58448644 249.07907325 315.6347564 251.14453125 310.4921875 C251.9951085 308.01425014 252.69349046 305.52907008 253.375 303 C255.35871745 296.01339073 259.53562073 289.05060352 265.63208008 284.88476562 C272.38661872 281.26306785 279.25095276 280.89847546 286.77539062 280.22265625 C294.17737335 279.46541738 294.17737335 279.46541738 300 275 C301.29060033 272.41879934 301.13272333 270.50580171 301.125 267.625 C301.12886719 266.19027344 301.12886719 266.19027344 301.1328125 264.7265625 C301.09476687 262.11275758 301.09476687 262.11275758 300.51953125 260.0859375 C298.20998344 250.81301622 299.51658356 241.70630234 304.25390625 233.51171875 C308.83120173 226.92737649 315.04432628 223.61102188 322.11328125 220.06542969 C326.46928253 217.76057846 328.31016668 215.61478118 330 211 C329.8382697 203.39867595 324.51096923 197.15719087 320.3671875 191.11328125 C315.72826076 183.94282592 315.22857475 176.45657477 316.875 168.125 C318.42729704 162.47961786 321.41339178 158.28152033 324.85400391 153.66259766 C328.08126872 149.21449697 329.77711075 145.52096595 329 140 C326.93157811 133.93262913 320.7638987 131.52887463 315.46484375 128.59765625 C307.55163985 124.09799128 302.03680119 119.4813124 299.4609375 110.49609375 C298.33095027 104.37692563 298.80619107 98.23882731 299.33984375 92.07421875 C299.39624023 91.40793457 299.45263672 90.74165039 299.51074219 90.05517578 C299.67965883 88.15089728 299.87627286 86.24913643 300.07421875 84.34765625 C299.98908951 80.50787945 299.4118099 78.95690979 297 76 C292.76933224 72.54135191 288.49181415 72.39581266 283.25 72 C273.2184229 71.04078939 264.31887268 69.58529845 257 62 C253.16428032 56.13661934 251.28611702 50.1038748 249.37695312 43.40820312 C247.88166733 38.55565439 246.66207839 35.56646421 242 33 C236.42266704 31.45829821 232.86996665 32.46986395 227.8125 34.875 C218.51678766 38.92123305 208.75206958 40.80828995 199 37 C192.0133271 33.55621442 187.16943492 28.20639105 182.1640625 22.390625 C179.39736975 19.3342785 177.82622804 18.09353525 173.6875 17.625 C166.58580004 18.34720678 163.14526168 22.83345829 158.78125 27.97265625 Z " fill="#FE9A03" transform="translate(0,0)"/>
<path d="M0 0 C1.55589757 1.28726041 3.08567531 2.59867649 4.60620117 3.92749023 C5.11489746 4.36899414 5.62359375 4.81049805 6.14770508 5.26538086 C25.01154848 21.98275206 37.980402 47.73164068 39.82666016 72.93725586 C40.95684338 103.1200771 33.87356499 130.53014572 13.16870117 153.23999023 C11.34389005 155.16875228 9.48308607 157.0479279 7.60620117 158.92749023 C6.81600586 159.72928711 6.02581055 160.53108398 5.21166992 161.35717773 C-1.56052677 167.84860342 -9.24621991 172.40003139 -17.39379883 176.92749023 C-18.28196289 177.4340918 -19.17012695 177.94069336 -20.08520508 178.46264648 C-26.82681718 182.09445399 -33.97485892 184.12776858 -41.39379883 185.92749023 C-42.12284424 186.10699219 -42.85188965 186.28649414 -43.60302734 186.47143555 C-71.74644059 192.8208122 -99.44237057 185.90791535 -123.39379883 170.92749023 C-126.54337615 168.74850685 -129.48512453 166.41684835 -132.39379883 163.92749023 C-133.20333008 163.25073242 -134.01286133 162.57397461 -134.84692383 161.87670898 C-154.7756404 144.66832336 -167.92893488 119.21937239 -170.39379883 92.92749023 C-172.32299126 60.67919958 -161.58934306 32.98804107 -140.56176758 8.82202148 C-104.49208611 -29.52944032 -40.51861213 -32.28602087 0 0 Z " fill="#F7F7F6" transform="translate(239.393798828125,94.072509765625)"/>
<path d="M0 0 C54.78 0 109.56 0 166 0 C164.68 0.66 163.36 1.32 162 2 C154.61916418 6.00053706 148.91632052 11.27359045 143.75 17.875 C141.03252575 21.17479017 139.13869056 21.83732992 134.9375 22.4375 C130.21951607 21.91327956 126.77203725 20.2871076 122.55078125 18.19140625 C115.19803837 14.75712359 105.92648049 14.86484526 98.1875 17.0625 C91.70069 19.6023723 86.0755344 24.56510088 82.86328125 30.77734375 C81.23258659 34.9758291 80.13876859 39.33547427 79.02734375 43.6953125 C77.46178704 48.7312858 75.51000974 52.18124391 71 55 C68.05401817 55.98199394 65.5833882 56.14234553 62.50341797 56.23950195 C55.21508654 56.48946881 49.38319366 57.1975384 43 61 C41.948125 61.53625 40.89625 62.0725 39.8125 62.625 C34.27484085 67.3012455 30.40565722 74.15276429 29.1015625 81.3125 C28.91282709 86.3067292 29.72996998 91.21116915 30.4921875 96.1328125 C31.72235589 105.50101795 31.72235589 105.50101795 29.4921875 110.12890625 C26.41758597 113.67096287 23.17874497 115.65773333 19.125 117.9375 C10.83372911 122.60614697 5.02591912 127.66580881 2 137 C1.69363155 139.7324754 1.5209364 142.15667512 1.5625 144.875 C1.57494751 145.93098389 1.57494751 145.93098389 1.58764648 147.00830078 C1.8959623 156.52110559 6.03161865 162.43512702 11.51171875 169.93359375 C14.21065203 173.68093155 14.57050151 176.58381745 14.55078125 181.15234375 C13.66375808 185.73844225 10.89273464 188.68632529 8.046875 192.2890625 C2.12663138 200.12999584 0.82214747 208.33432357 2 218 C2.87207132 221.36444083 4.14491244 224.06884957 6 227 C6.41636719 227.66386719 6.83273438 228.32773438 7.26171875 229.01171875 C11.50666144 234.68278392 17.15679287 237.61834376 23.40136719 240.6796875 C26.85401296 242.44134208 28.73681327 243.6244587 31.00390625 246.859375 C32.14336269 250.45201414 32.11248987 252.89024053 31.6875 256.625 C30.54255616 268.83344612 29.54286531 280.20512033 37.421875 290.43359375 C45.20117529 298.15512696 56.01920663 299.35192967 66.41601562 299.94726562 C72.00338035 300.42510122 75.12032891 301.65943565 79 306 C80.07275261 308.65620393 80.83507536 310.94448323 81.5 313.6875 C83.80828394 321.92278874 86.37135582 329.88973537 93.75 334.9375 C100.84339947 338.7622393 109.07929246 341.53898847 117.11987305 339.44897461 C119.37504352 338.70853402 121.59302538 337.90370591 123.8125 337.0625 C124.57498047 336.78470703 125.33746094 336.50691406 126.12304688 336.22070312 C130.12359487 334.75738575 130.12359487 334.75738575 134 333 C137.93886481 332.621263 140.40755202 332.71611868 144 334.4375 C146.64004491 336.69253836 148.2467437 338.59946032 150.25 341.375 C154.54056318 347.17875287 160.18120841 350.72706947 167 353 C178.04381957 353.82504522 187.05807628 353.84881917 195.91015625 346.390625 C198.39634509 344.00825504 200.60798807 341.4844024 202.7734375 338.80859375 C203.36382812 338.08800781 203.95421875 337.36742187 204.5625 336.625 C205.07941406 335.95726562 205.59632813 335.28953125 206.12890625 334.6015625 C208.78780594 332.32567759 210.50684259 332.09587425 214 332 C216.70070037 332.88505565 219.20753038 333.83503694 221.8125 334.9375 C231.12164252 338.53516708 240.88574531 340.06240473 250.66796875 337.2265625 C253.0313264 336.18840309 253.0313264 336.18840309 256 334 C256.9075 333.38125 257.815 332.7625 258.75 332.125 C263.6968017 327.45302062 265.793959 322.31496603 267.5625 315.9375 C269.56759846 308.81046685 271.42040388 303.03584516 278 299 C280.89996274 298.32892822 283.78447139 298.12932776 286.75 297.9375 C296.07133159 297.10605477 305.10154428 295.9643121 312 289 C318.20788832 280.4939318 319.59875505 273.38295683 319 263 C318.68079191 261.0564346 318.32731612 259.11814333 317.9375 257.1875 C316.82122523 251.49288091 316.7157535 248.0547944 319.875 243 C323.05742332 239.44644859 327.17393323 237.59638401 331.3515625 235.41796875 C338.48944424 231.5963595 342.47941235 226.23740478 346 219 C346.93534083 215.61034392 346.93534083 215.61034392 347 213 C347.33 213 347.66 213 348 213 C348 259.86 348 306.72 348 355 C233.16 355 118.32 355 0 355 C0 237.85 0 120.7 0 0 Z " fill="#F5F4F4" transform="translate(0,0)"/>
<path d="M0 0 C1.55589757 1.28726041 3.08567531 2.59867649 4.60620117 3.92749023 C5.11489746 4.36899414 5.62359375 4.81049805 6.14770508 5.26538086 C25.01154848 21.98275206 37.980402 47.73164068 39.82666016 72.93725586 C40.95684338 103.1200771 33.87356499 130.53014572 13.16870117 153.23999023 C11.34389005 155.16875228 9.48308607 157.0479279 7.60620117 158.92749023 C6.81600586 159.72928711 6.02581055 160.53108398 5.21166992 161.35717773 C-1.56052677 167.84860342 -9.24621991 172.40003139 -17.39379883 176.92749023 C-18.28196289 177.4340918 -19.17012695 177.94069336 -20.08520508 178.46264648 C-26.82681718 182.09445399 -33.97485892 184.12776858 -41.39379883 185.92749023 C-42.12284424 186.10699219 -42.85188965 186.28649414 -43.60302734 186.47143555 C-71.74644059 192.8208122 -99.44237057 185.90791535 -123.39379883 170.92749023 C-126.54337615 168.74850685 -129.48512453 166.41684835 -132.39379883 163.92749023 C-133.20333008 163.25073242 -134.01286133 162.57397461 -134.84692383 161.87670898 C-154.7756404 144.66832336 -167.92893488 119.21937239 -170.39379883 92.92749023 C-172.32299126 60.67919958 -161.58934306 32.98804107 -140.56176758 8.82202148 C-104.49208611 -29.52944032 -40.51861213 -32.28602087 0 0 Z M-93.39379883 0.92749023 C-94.57844727 1.33999023 -95.7630957 1.75249023 -96.98364258 2.17749023 C-110.2100999 7.32192446 -122.27779435 16.00508855 -131.39379883 26.92749023 C-131.39379883 27.58749023 -131.39379883 28.24749023 -131.39379883 28.92749023 C-132.05379883 28.92749023 -132.71379883 28.92749023 -133.39379883 28.92749023 C-141.85724076 40.00849153 -147.02305156 52.51364469 -150.39379883 65.92749023 C-150.57031982 66.55429688 -150.74684082 67.18110352 -150.92871094 67.8269043 C-155.27869362 87.47375523 -149.64250579 110.67594509 -139.64379883 127.55249023 C-133.12269011 138.63420262 -133.12269011 138.63420262 -123.39379883 145.92749023 C-123.39379883 146.58749023 -123.39379883 147.24749023 -123.39379883 147.92749023 C-107.15420813 162.31016308 -84.87882067 170.71686474 -63.21020508 170.18139648 C-37.65189101 167.87724889 -15.44635198 158.12829262 1.54370117 138.52905273 C11.24052357 126.29783357 18.21990844 112.29415888 20.35620117 96.80249023 C20.48397949 95.87815186 20.61175781 94.95381348 20.7434082 94.00146484 C23.05416895 75.74581924 19.3249711 56.16244113 10.60620117 39.92749023 C9.94620117 39.92749023 9.28620117 39.92749023 8.60620117 39.92749023 C8.48631836 39.33709961 8.36643555 38.74670898 8.24291992 38.13842773 C4.68658816 25.7894475 -11.58709411 13.57449448 -22.25317383 7.53295898 C-27.21321842 4.9974138 -32.13825213 2.78044961 -37.39379883 0.92749023 C-38.45211914 0.53432617 -39.51043945 0.14116211 -40.60083008 -0.26391602 C-57.3966062 -5.67400327 -76.81738041 -4.89518144 -93.39379883 0.92749023 Z " fill="#FE9A03" transform="translate(239.393798828125,94.072509765625)"/>
<path d="M0 0 C0 7.92 0 15.84 0 24 C4.95 24 9.9 24 15 24 C15 28.95 15 33.9 15 39 C19.95 39 24.9 39 30 39 C30 43.95 30 48.9 30 54 C34.95 54 39.9 54 45 54 C45 58.95 45 63.9 45 69 C40.545 69.495 40.545 69.495 36 70 C37.32 71.32 38.64 72.64 40 74 C43.22380023 72.59053619 45.2796858 70.92368276 47.69189453 68.37646484 C48.40008331 67.63584808 49.10827209 66.89523132 49.83792114 66.13217163 C50.59523529 65.33316437 51.35254944 64.5341571 52.1328125 63.7109375 C53.75917781 62.03005045 55.38682272 60.3504007 57.015625 58.671875 C59.57551963 56.02553727 62.12695223 53.37293635 64.65722656 50.69824219 C67.10529019 48.11666515 69.58425714 45.56837898 72.0703125 43.0234375 C72.81548126 42.22038177 73.56065002 41.41732605 74.32839966 40.5899353 C78.19835556 36.68160092 80.75941663 34.50498462 86.39794922 34.35791016 C89.990441 34.56127544 90.754827 34.78472614 93.5625 37.25 C95.93495935 41.78861789 95.93495935 41.78861789 96 44 C93.95686629 50.01586817 90.94092233 53.61326573 86.42578125 58 C85.78311813 58.639375 85.14045502 59.27875 84.47831726 59.9375 C82.43225831 61.96789785 80.37246872 63.98372686 78.3125 66 C76.94770177 67.35329393 75.5837611 68.70745328 74.22070312 70.0625 C72.89399395 71.37577306 71.56654324 72.68829751 70.23828125 74 C69.63276932 74.598125 69.02725739 75.19625 68.40339661 75.8125 C64.63411204 79.49983171 60.75358972 83.01918514 56.75721741 86.45925903 C54.43646391 88.49411253 52.27600977 90.66275152 50.125 92.875 C45.39805825 97.73370319 45.39805825 97.73370319 41.375 98.5 C37.68716732 97.95365442 36.97405492 97.39270396 34.31640625 94.97265625 C33.61580078 94.33666504 32.91519531 93.70067383 32.19335938 93.04541016 C31.46955078 92.3704248 30.74574219 91.69543945 30 91 C29.29681641 90.34692871 28.59363281 89.69385742 27.86914062 89.02099609 C25.74270718 87.01678839 23.64998561 84.98218535 21.5625 82.9375 C20.84384766 82.25623047 20.12519531 81.57496094 19.38476562 80.87304688 C18.70220703 80.20208984 18.01964844 79.53113281 17.31640625 78.83984375 C16.70224854 78.24550537 16.08809082 77.65116699 15.45532227 77.03881836 C14 75 14 75 13 69 C8.71 69 4.42 69 0 69 C0 73.95 0 78.9 0 84 C4.95 84 9.9 84 15 84 C15 88.95 15 93.9 15 99 C19.95 99 24.9 99 30 99 C30 103.95 30 108.9 30 114 C34.95 114 39.9 114 45 114 C45 118.95 45 123.9 45 129 C49.95 129 54.9 129 60 129 C60 133.95 60 138.9 60 144 C64.95 144 69.9 144 75 144 C75 139.05 75 134.1 75 129 C79.95 129 84.9 129 90 129 C90 134.28 90 139.56 90 145 C68.2890452 154.53966196 45.28934721 155.30914232 23.03515625 147.2890625 C13.55697157 143.26357866 3.3423194 138.36221729 -4 131 C-4 130.34 -4 129.68 -4 129 C-4.56203125 128.78859375 -5.1240625 128.5771875 -5.703125 128.359375 C-8.7734532 126.54224198 -10.6425987 124.0598684 -12.75 121.25 C-13.40198364 120.3832666 -13.40198364 120.3832666 -14.06713867 119.49902344 C-29.4132658 98.67834996 -35.11472236 74.98627549 -31.46875 49.25 C-30.79096787 46.42099632 -29.98688658 43.73520721 -29 41 C-28.7215625 40.18144531 -28.443125 39.36289063 -28.15625 38.51953125 C-24.7247395 29.21599631 -19.84717689 20.00392246 -14 12 C-13.34 12 -12.68 12 -12 12 C-11.7525 11.42765625 -11.505 10.8553125 -11.25 10.265625 C-9.80683801 7.64989389 -8.11783778 5.85226544 -6 3.75 C-5.29875 3.04359375 -4.5975 2.3371875 -3.875 1.609375 C-2 0 -2 0 0 0 Z " fill="#F5F5F4" transform="translate(120,111)"/>
<path d="M0 0 C55.44 0 110.88 0 168 0 C168 67.65 168 135.3 168 205 C167.67 205 167.34 205 167 205 C166.89945313 204.45214844 166.79890625 203.90429688 166.6953125 203.33984375 C165.03212614 196.33395598 161.75701729 191.24147318 157.40478516 185.61889648 C154.39106214 181.49435677 153.26399238 178.30312724 153.56274414 173.1574707 C154.28731673 169.5823462 156.09859572 167.22094394 158.3125 164.375 C165.60240265 154.86643133 167.27265045 146.7430928 166 135 C164.75774576 131.32384763 163.08234156 128.25602499 161 125 C160.71898437 124.29359375 160.43796875 123.5871875 160.1484375 122.859375 C158.5497474 120.2710196 156.83557102 119.98503121 154 119 C152.31410742 118.05431963 150.64723922 117.07400783 149 116.0625 C148.175 115.55847656 147.35 115.05445312 146.5 114.53515625 C145.675 114.02855469 144.85 113.52195312 144 113 C143.11183594 112.49984375 142.22367188 111.9996875 141.30859375 111.484375 C138.71263329 109.81522952 137.4626268 108.23672138 136.359375 105.34375 C135.69403838 101.00459814 136.70968639 96.79345769 137.4375 92.50390625 C138.95779356 83.03374431 137.98742563 76.15073385 133.1875 67.875 C127.76584543 60.74939685 122.9813721 56.96205208 114 55 C110.34525416 54.65197009 106.68540655 54.49814886 103.0144043 54.50268555 C96.81182989 54.40228286 93.3102141 52.3102141 89 48 C88.44474412 46.08467915 87.89666907 44.16668173 87.40185547 42.23486328 C85.33470623 34.17692031 82.97673576 28.03338728 77 22 C76.33871094 21.21302734 76.33871094 21.21302734 75.6640625 20.41015625 C70.12916774 15.71978768 60.26702409 14.18785205 53.16015625 14.38671875 C47.99756962 15.38860515 43.21991642 17.48376454 38.45629883 19.68481445 C34.71354077 21.33432578 32.53316954 22.05302875 28.38671875 21.640625 C23.99963384 19.51539356 21.30379804 16.70537646 18.0625 13.125 C13.9743978 8.6341063 10.39956804 5.28953818 4.79467773 2.81982422 C3 2 3 2 0 0 Z " fill="#F1F0F0" transform="translate(180,0)"/>
<path d="M0 0 C0 7.92 0 15.84 0 24 C4.95 24 9.9 24 15 24 C15 28.95 15 33.9 15 39 C19.95 39 24.9 39 30 39 C30 43.95 30 48.9 30 54 C34.95 54 39.9 54 45 54 C45 58.95 45 63.9 45 69 C40.545 69.495 40.545 69.495 36 70 C37.32 71.32 38.64 72.64 40 74 C43.22380023 72.59053619 45.2796858 70.92368276 47.69189453 68.37646484 C48.40008331 67.63584808 49.10827209 66.89523132 49.83792114 66.13217163 C50.59523529 65.33316437 51.35254944 64.5341571 52.1328125 63.7109375 C53.75917781 62.03005045 55.38682272 60.3504007 57.015625 58.671875 C59.57551963 56.02553727 62.12695223 53.37293635 64.65722656 50.69824219 C67.10529019 48.11666515 69.58425714 45.56837898 72.0703125 43.0234375 C72.81548126 42.22038177 73.56065002 41.41732605 74.32839966 40.5899353 C78.19835556 36.68160092 80.75941663 34.50498462 86.39794922 34.35791016 C89.990441 34.56127544 90.754827 34.78472614 93.5625 37.25 C95.93495935 41.78861789 95.93495935 41.78861789 96 44 C93.95686629 50.01586817 90.94092233 53.61326573 86.42578125 58 C85.78311813 58.639375 85.14045502 59.27875 84.47831726 59.9375 C82.43225831 61.96789785 80.37246872 63.98372686 78.3125 66 C76.94770177 67.35329393 75.5837611 68.70745328 74.22070312 70.0625 C72.89399395 71.37577306 71.56654324 72.68829751 70.23828125 74 C69.63276932 74.598125 69.02725739 75.19625 68.40339661 75.8125 C64.63411204 79.49983171 60.75358972 83.01918514 56.75721741 86.45925903 C54.43646391 88.49411253 52.27600977 90.66275152 50.125 92.875 C45.39805825 97.73370319 45.39805825 97.73370319 41.375 98.5 C37.68716732 97.95365442 36.97405492 97.39270396 34.31640625 94.97265625 C33.61580078 94.33666504 32.91519531 93.70067383 32.19335938 93.04541016 C31.46955078 92.3704248 30.74574219 91.69543945 30 91 C29.29681641 90.34692871 28.59363281 89.69385742 27.86914062 89.02099609 C25.74270718 87.01678839 23.64998561 84.98218535 21.5625 82.9375 C20.84384766 82.25623047 20.12519531 81.57496094 19.38476562 80.87304688 C18.70220703 80.20208984 18.01964844 79.53113281 17.31640625 78.83984375 C16.70224854 78.24550537 16.08809082 77.65116699 15.45532227 77.03881836 C14 75 14 75 13 69 C8.71 69 4.42 69 0 69 C0 64.05 0 59.1 0 54 C-4.95 54 -9.9 54 -15 54 C-15 49.05 -15 44.1 -15 39 C-18.63 39 -22.26 39 -26 39 C-27.26333735 33.9466506 -25.67510649 31.55770232 -23.375 27.1875 C-23.03082031 26.50107422 -22.68664062 25.81464844 -22.33203125 25.10742188 C-19.92821807 20.41954266 -17.26094186 16.14388791 -14 12 C-13.34 12 -12.68 12 -12 12 C-11.7525 11.42765625 -11.505 10.8553125 -11.25 10.265625 C-9.80683801 7.64989389 -8.11783778 5.85226544 -6 3.75 C-5.29875 3.04359375 -4.5975 2.3371875 -3.875 1.609375 C-2 0 -2 0 0 0 Z " fill="#EFEFEE" transform="translate(120,111)"/>
<path d="M0 0 C0.78117187 0.94617188 1.56234375 1.89234375 2.3671875 2.8671875 C3.22699219 3.79917969 4.08679688 4.73117188 4.97265625 5.69140625 C5.82472656 6.63628906 6.67679688 7.58117187 7.5546875 8.5546875 C10.89906231 12.26982985 10.89906231 12.26982985 14.3671875 15.8671875 C14.33350071 20.23524069 13.79387799 24.51494455 13.3671875 28.8671875 C18.3171875 28.8671875 23.2671875 28.8671875 28.3671875 28.8671875 C28.3671875 33.8171875 28.3671875 38.7671875 28.3671875 43.8671875 C33.3171875 43.8671875 38.2671875 43.8671875 43.3671875 43.8671875 C43.3671875 48.8171875 43.3671875 53.7671875 43.3671875 58.8671875 C38.4171875 58.8671875 33.4671875 58.8671875 28.3671875 58.8671875 C28.3671875 63.8171875 28.3671875 68.7671875 28.3671875 73.8671875 C23.4171875 73.8671875 18.4671875 73.8671875 13.3671875 73.8671875 C13.3671875 68.9171875 13.3671875 63.9671875 13.3671875 58.8671875 C8.9121875 59.3621875 8.9121875 59.3621875 4.3671875 59.8671875 C4.026875 59.21492188 3.6865625 58.56265625 3.3359375 57.890625 C-1.57519946 49.03490463 -7.2165104 44.39830079 -16.6328125 40.8671875 C-16.6328125 36.9071875 -16.6328125 32.9471875 -16.6328125 28.8671875 C-11.6828125 28.8671875 -6.7328125 28.8671875 -1.6328125 28.8671875 C-1.6328125 23.9171875 -1.6328125 18.9671875 -1.6328125 13.8671875 C-6.5828125 13.8671875 -11.5328125 13.8671875 -16.6328125 13.8671875 C-16.6328125 8.9171875 -16.6328125 3.9671875 -16.6328125 -1.1328125 C-3.38522379 -2.74233262 -3.38522379 -2.74233262 0 0 Z " fill="#EFEFEE" transform="translate(91.6328125,241.1328125)"/>
<path d="M0 0 C2.12380981 0.50180054 2.12380981 0.50180054 4.68630981 2.75180054 C7.05876916 7.29041842 7.05876916 7.29041842 7.12380981 9.50180054 C5.0806761 15.51766871 2.06473214 19.11506627 -2.45040894 23.50180054 C-3.09307205 24.14117554 -3.73573517 24.78055054 -4.39787292 25.43930054 C-6.44393188 27.46969839 -8.50372147 29.48552739 -10.56369019 31.50180054 C-11.92848841 32.85509447 -13.29242908 34.20925382 -14.65548706 35.56430054 C-15.98219624 36.87757359 -17.30964694 38.19009804 -18.63790894 39.50180054 C-19.24342087 40.09992554 -19.8489328 40.69805054 -20.47279358 41.31430054 C-24.24207814 45.00163225 -28.12260047 48.52098567 -32.11897278 51.96105957 C-34.43972627 53.99591307 -36.60018041 56.16455205 -38.75119019 58.37680054 C-43.47813193 63.23550373 -43.47813193 63.23550373 -47.50119019 64.00180054 C-51.18226558 63.45645603 -51.90229004 62.90043046 -54.55978394 60.49008179 C-55.2603894 59.85473511 -55.96099487 59.21938843 -56.68283081 58.56478882 C-60.29205575 55.17009261 -63.82001344 51.70251322 -67.31369019 48.18930054 C-68.03234253 47.47451538 -68.75099487 46.75973022 -69.49142456 46.02328491 C-70.17398315 45.33943726 -70.85654175 44.6555896 -71.55978394 43.95101929 C-72.17394165 43.33573364 -72.78809937 42.720448 -73.42086792 42.08651733 C-75.61771654 39.69434414 -75.87650278 38.49903927 -76.25119019 35.18930054 C-75.87619019 31.50180054 -75.87619019 31.50180054 -73.75119019 28.62680054 C-70.54703291 26.25851038 -68.84828434 25.50180054 -64.87619019 25.50180054 C-60.54433822 27.63496461 -57.38224661 30.75554722 -54.06369019 34.18930054 C-53.56160034 34.70041382 -53.0595105 35.2115271 -52.54220581 35.73812866 C-51.31555509 36.98814416 -50.09521528 38.24434733 -48.87619019 39.50180054 C-45.65238995 38.09233673 -43.59650438 36.4254833 -41.18429565 33.87826538 C-40.47610687 33.13764862 -39.76791809 32.39703186 -39.03826904 31.63397217 C-38.2809549 30.8349649 -37.52364075 30.03595764 -36.74337769 29.21273804 C-35.11701237 27.53185098 -33.48936747 25.85220124 -31.86056519 24.17367554 C-29.30067056 21.52733781 -26.74923796 18.87473688 -24.21896362 16.20004272 C-21.77089999 13.61846569 -19.29193304 11.07017952 -16.80587769 8.52523804 C-16.06070892 7.72218231 -15.31554016 6.91912659 -14.54779053 6.09173584 C-9.83913875 1.3363882 -6.76208711 -0.38279107 0 0 Z " fill="#FE9A03" transform="translate(208.87619018554688,145.49819946289063)"/>
<path d="M0 0 C3.63 0 7.26 0 11 0 C10.40832031 1.1859375 9.81664062 2.371875 9.20703125 3.59375 C-5.25517524 33.0321572 -7.94451735 59.22193062 0 91 C-4.95 90.67 -9.9 90.34 -15 90 C-15 85.05 -15 80.1 -15 75 C-19.95 75 -24.9 75 -30 75 C-30 70.05 -30 65.1 -30 60 C-25.05 60 -20.1 60 -15 60 C-15 55.05 -15 50.1 -15 45 C-19.95 45 -24.9 45 -30 45 C-30 40.05 -30 35.1 -30 30 C-25.05 30 -20.1 30 -15 30 C-15 25.05 -15 20.1 -15 15 C-10.05 15 -5.1 15 0 15 C0 10.05 0 5.1 0 0 Z " fill="#F3F2F2" transform="translate(75,120)"/>
<path d="M0 0 C5.94 0 11.88 0 18 0 C18 39.6 18 79.2 18 120 C17.01 120 16.02 120 15 120 C15 115.05 15 110.1 15 105 C10.05 105 5.1 105 0 105 C0 100.05 0 95.1 0 90 C4.95 90 9.9 90 15 90 C15 85.05 15 80.1 15 75 C10.05 75 5.1 75 0 75 C0 70.05 0 65.1 0 60 C4.95 60 9.9 60 15 60 C15 55.05 15 50.1 15 45 C10.05 45 5.1 45 0 45 C0 40.05 0 35.1 0 30 C4.95 30 9.9 30 15 30 C15 25.05 15 20.1 15 15 C10.05 15 5.1 15 0 15 C0 10.05 0 5.1 0 0 Z " fill="#FFFFFF" transform="translate(330,0)"/>
<path d="M0 0 C4.95 0 9.9 0 15 0 C15.70791284 4.68311568 16.12451476 7.49661152 15 12 C11.62691068 15.59070799 7.79994866 18.14810801 3.70117188 20.84716797 C-1.87559159 24.62636962 -6.78908828 29.17790789 -10.67578125 34.67578125 C-17.7262727 44.63720951 -17.7262727 44.63720951 -22.140625 45.89453125 C-25.1875 45.875 -25.1875 45.875 -30 45 C-30 40.05 -30 35.1 -30 30 C-25.05 30 -20.1 30 -15 30 C-15 25.05 -15 20.1 -15 15 C-10.05 15 -5.1 15 0 15 C0 10.05 0 5.1 0 0 Z " fill="#FEFEFE" transform="translate(105,75)"/>
<path d="M0 0 C4.62 0 9.24 0 14 0 C14.350625 1.588125 14.70125 3.17625 15.0625 4.8125 C17.27735523 12.79628048 20.87799691 20.56919414 28.1875 25 C33.53916901 27.5462093 39.23390572 28.74073803 45 30 C45 34.95 45 39.9 45 45 C40.05 45 35.1 45 30 45 C30 40.05 30 35.1 30 30 C25.05 30 20.1 30 15 30 C15 25.05 15 20.1 15 15 C10.05 15 5.1 15 0 15 C0 10.05 0 5.1 0 0 Z " fill="#F0EFEF" transform="translate(15,270)"/>
<path d="M0 0 C4.95 0 9.9 0 15 0 C15.96791286 13.67176921 15.96791286 13.67176921 13.39453125 17.203125 C11.99055147 18.28837766 10.56229604 19.34283956 9.11328125 20.3671875 C5.14293199 23.43485107 3.34308677 27.23420822 2 32 C0.46067068 45.54064909 3.54750731 54.03609672 11.51171875 64.93359375 C14.37159845 68.90439784 14 69.33837699 14 75 C9.38 75 4.76 75 0 75 C0 50.25 0 25.5 0 0 Z " fill="#EFEFEE" transform="translate(0,105)"/>
<path d="M0 0 C4.95 0 9.9 0 15 0 C15 4.95 15 9.9 15 15 C19.95 15 24.9 15 30 15 C30 18.63 30 22.26 30 26 C28.77796875 25.76216797 28.77796875 25.76216797 27.53125 25.51953125 C24.91725857 25.13495065 22.52828493 24.90402511 19.90625 24.82421875 C19.18566406 24.80037109 18.46507812 24.77652344 17.72265625 24.75195312 C16.24117868 24.70899288 14.75931534 24.67773702 13.27734375 24.65820312 C7.11016093 24.42100379 3.42089399 22.42089399 -1 18 C-1.13525391 16.12060547 -1.13525391 16.12060547 -0.9765625 13.8671875 C-0.925 13.06152344 -0.8734375 12.25585938 -0.8203125 11.42578125 C-0.75585938 10.58402344 -0.69140625 9.74226563 -0.625 8.875 C-0.56828125 8.02550781 -0.5115625 7.17601562 -0.453125 6.30078125 C-0.31149023 4.1998655 -0.15695674 2.09982666 0 0 Z " fill="#FEFEFE" transform="translate(270,30)"/>
<path d="M0 0 C4.95 0 9.9 0 15 0 C15 4.95 15 9.9 15 15 C13.35 15.515625 11.7 16.03125 10 16.5625 C2.66316232 19.22269534 -2.48713793 22.97427587 -6 30 C-8.97 30 -11.94 30 -15 30 C-15 25.05 -15 20.1 -15 15 C-10.05 15 -5.1 15 0 15 C0 10.05 0 5.1 0 0 Z " fill="#FEFEFE" transform="translate(90,0)"/>
<path d="M0 0 C4.95 0 9.9 0 15 0 C16.03125 2.145 17.0625 4.29 18.125 6.5 C20.21787134 10.79344946 22.31288055 14.67370027 25.375 18.375 C28.45841708 22.16366674 28.8273589 25.1660491 29 30 C24.38 30 19.76 30 15 30 C15 25.05 15 20.1 15 15 C10.05 15 5.1 15 0 15 C0 10.05 0 5.1 0 0 Z " fill="#FEFEFE" transform="translate(300,180)"/>
<path d="M0 0 C4.95 0 9.9 0 15 0 C15 4.62 15 9.24 15 14 C15.66 14.33 16.32 14.66 17 15 C16.19820312 15.1959375 15.39640625 15.391875 14.5703125 15.59375 C4.17276772 18.32870509 -5.28132717 22.46021179 -15 27 C-15 23.04 -15 19.08 -15 15 C-10.05 15 -5.1 15 0 15 C0 10.05 0 5.1 0 0 Z " fill="#EFEEEE" transform="translate(135,60)"/>
<path d="M0 0 C0.66 0 1.32 0 2 0 C5.2359322 10.37655591 7.21698143 21.10085583 7 32 C5.02 32 3.04 32 1 32 C1 27.05 1 22.1 1 17 C-3.95 17 -8.9 17 -14 17 C-14 12.05 -14 7.1 -14 2 C-9.38 2 -4.76 2 0 2 C0 1.34 0 0.68 0 0 Z " fill="#FEFEFE" transform="translate(254,148)"/>
<path d="M0 0 C4.95 0 9.9 0 15 0 C15 4.95 15 9.9 15 15 C19.95 15 24.9 15 30 15 C30 18.3 30 21.6 30 25 C28.494375 24.401875 26.98875 23.80375 25.4375 23.1875 C24.51582031 22.82140625 23.59414062 22.4553125 22.64453125 22.078125 C20.61557872 21.25095972 18.61333657 20.35802619 16.625 19.4375 C12.3172985 17.72927354 7.9860171 16.68908087 3.4765625 15.6484375 C1 15 1 15 0 14 C-0.14426614 9.33154772 -0.04208415 4.67134047 0 0 Z " fill="#F0EFEE" transform="translate(195,60)"/>
<path d="M0 0 C4.95 0 9.9 0 15 0 C15 4.95 15 9.9 15 15 C19.95 15 24.9 15 30 15 C30 19.29 30 23.58 30 28 C29.01 28 28.02 28 27 28 C25.82463036 26.55597444 24.65098801 25.11049091 23.48828125 23.65625 C18.10657756 17.66716243 11.33153218 16.09302358 3.66015625 14.578125 C1 14 1 14 0 13 C-0.14393457 8.66469082 -0.04212061 4.33842269 0 0 Z " fill="#EFEFEE" transform="translate(135,300)"/>
<path d="M0 0 C1.65 0 3.3 0 5 0 C5.37973856 11.39215665 3.2778372 21.45077041 -1 32 C-1.33 31.34 -1.66 30.68 -2 30 C-6.29 30 -10.58 30 -15 30 C-15 25.05 -15 20.1 -15 15 C-10.05 15 -5.1 15 0 15 C0 10.05 0 5.1 0 0 Z " fill="#EFEFEE" transform="translate(255,180)"/>
<path d="M0 0 C3.8971396 -0.31177117 6.44360215 -0.2666073 10 1.4375 C12.64004491 3.69253836 14.2467437 5.59946032 16.25 8.375 C20.54056318 14.17875287 26.18120841 17.72706947 33 20 C46.10651819 20.85313376 46.10651819 20.85313376 58 16 C58.99 16 59.98 16 61 16 C61 17.98 61 19.96 61 22 C46.15 22 31.3 22 16 22 C16 18.7 16 15.4 16 12 C11.05 12 6.1 12 1 12 C0.67 8.04 0.34 4.08 0 0 Z " fill="#F1EFEB" transform="translate(134,333)"/>
<path d="M0 0 C4.95 0 9.9 0 15 0 C15 4.95 15 9.9 15 15 C19.95 15 24.9 15 30 15 C30 16.65 30 18.3 30 20 C30.99 20.66 31.98 21.32 33 22 C28.15369201 22.53847867 25.35276447 21.84367367 21 19.625 C14.0929069 16.22443673 7.60838575 15.76781875 0 15 C0 10.05 0 5.1 0 0 Z " fill="#EFEEEC" transform="translate(105,0)"/>
<path d="M0 0 C4.95 0 9.9 0 15 0 C15 4.62 15 9.24 15 14 C13.164375 14.20625 11.32875 14.4125 9.4375 14.625 C2.44258948 15.67039322 -3.54077774 17.97869488 -9.98046875 20.7578125 C-13 22 -13 22 -15 22 C-15 19.69 -15 17.38 -15 15 C-10.05 15 -5.1 15 0 15 C0 10.05 0 5.1 0 0 Z " fill="#EFEEED" transform="translate(225,0)"/>
<path d="M0 0 C0 4.95 0 9.9 0 15 C-8.25 15 -16.5 15 -25 15 C-23.02 12.69 -21.04 10.38 -19 8 C-18.44054687 7.19691406 -17.88109375 6.39382812 -17.3046875 5.56640625 C-12.43059816 -1.26530914 -8.06221577 -0.72469355 0 0 Z " fill="#EFEFEE" transform="translate(270,240)"/>
<path d="M0 0 C0.33 0 0.66 0 1 0 C1 4.95 1 9.9 1 15 C5.95 15 10.9 15 16 15 C16 19.95 16 24.9 16 30 C11.05 30.33 6.1 30.66 1 31 C-0.619579 24.62290768 -1.19309246 18.67306679 -1.1875 12.125 C-1.18814453 11.38773682 -1.18878906 10.65047363 -1.18945312 9.89086914 C-1.15494696 6.46495595 -1.07135391 3.27405755 0 0 Z " fill="#FEFEFE" transform="translate(89,165)"/>
<path d="M0 0 C4.29 0 8.58 0 13 0 C10.37549097 14.73762765 10.37549097 14.73762765 5.375 19.5 C0.88838356 21.49405175 -2.30736808 21.20452584 -7 20 C-10.5625 18.4375 -10.5625 18.4375 -13 17 C-13 16.34 -13 15.68 -13 15 C-8.71 15 -4.42 15 0 15 C0 10.05 0 5.1 0 0 Z " fill="#FEFEFD" transform="translate(240,300)"/>
<path d="M0 0 C2 2 2 2 2.01171875 4.9765625 C1.90472656 6.18054688 1.79773438 7.38453125 1.6875 8.625 C1.57921875 9.87796875 1.4709375 11.1309375 1.359375 12.421875 C0.97047889 16.29392759 0.53953191 20.14620061 0 24 C-0.33 23.34 -0.66 22.68 -1 22 C-5.62 22 -10.24 22 -15 22 C-15 17.05 -15 12.1 -15 7 C-10.05 7 -5.1 7 0 7 C0 4.69 0 2.38 0 0 Z " fill="#FEFEFE" transform="translate(30,248)"/>
<path d="M0 0 C2.64 0 5.28 0 8 0 C7.80664062 0.556875 7.61328125 1.11375 7.4140625 1.6875 C6.10690518 5.51837689 4.88969369 9.29915682 4 13.25 C2.56994223 18.61271664 0.75260666 22.02962084 -4 25 C-6.75078884 25.91692961 -8.35948913 26.10886083 -11.1875 26.0625 C-13.0746875 26.0315625 -13.0746875 26.0315625 -15 26 C-15 22.37 -15 18.74 -15 15 C-10.05 15 -5.1 15 0 15 C0 10.05 0 5.1 0 0 Z " fill="#F0EFEC" transform="translate(75,30)"/>
<path d="M0 0 C4.95 0 9.9 0 15 0 C15 5.94 15 11.88 15 18 C9.56639716 17.09439953 5.15388264 15.79605001 0 14 C0 9.38 0 4.76 0 0 Z " fill="#FDFCFA" transform="translate(240,0)"/>
<path d="M0 0 C4.95 0 9.9 0 15 0 C15 4.95 15 9.9 15 15 C9.06 15.495 9.06 15.495 3 16 C3.66 16.99 4.32 17.98 5 19 C2.697153 18.0788612 1.27982103 17.40082472 -0.15625 15.34375 C-1.89628296 10.51032512 -0.49905374 4.9905374 0 0 Z " fill="#FEFEFD" transform="translate(165,315)"/>
<path d="M0 0 C4.95 0 9.9 0 15 0 C15 4.95 15 9.9 15 15 C10.71 15 6.42 15 2 15 C1.67 15.66 1.34 16.32 1 17 C0.01 16.34 -0.98 15.68 -2 15 C-1.34 15 -0.68 15 0 15 C0 10.05 0 5.1 0 0 Z " fill="#EFEFEE" transform="translate(225,300)"/>
<path d="M0 0 C0.66 0.33 1.32 0.66 2 1 C1.67 1.33 1.34 1.66 1 2 C4.96 2.33 8.92 2.66 13 3 C13 7.95 13 12.9 13 18 C8.05 18 3.1 18 -2 18 C-2.04125 15.586875 -2.0825 13.17375 -2.125 10.6875 C-2.14320801 9.93170654 -2.16141602 9.17591309 -2.18017578 8.3972168 C-2.21099473 4.68552129 -2.10977558 3.16466336 0 0 Z " fill="#EFEFEE" transform="translate(227,267)"/>
<path d="M0 0 C4.95 0 9.9 0 15 0 C15 4.95 15 9.9 15 15 C10.05 15 5.1 15 0 15 C-1.65206638 10.04380087 -0.49932248 5.1596656 0 0 Z " fill="#FEFEFE" transform="translate(30,150)"/>
<path d="M0 0 C4.95 0 9.9 0 15 0 C15 4.95 15 9.9 15 15 C7.08 15.495 7.08 15.495 -1 16 C-0.67 10.72 -0.34 5.44 0 0 Z " fill="#FFFFFF" transform="translate(270,30)"/>
<path d="M0 0 C4.95 0.33 9.9 0.66 15 1 C15 5.95 15 10.9 15 16 C10.05 16 5.1 16 0 16 C0 10.72 0 5.44 0 0 Z " fill="#EFEFEF" transform="translate(45,119)"/>
<path d="M0 0 C4.95 0 9.9 0 15 0 C15.33 4.95 15.66 9.9 16 15 C10.72 15 5.44 15 0 15 C0 10.05 0 5.1 0 0 Z " fill="#EFEEEE" transform="translate(15,60)"/>
<path d="M0 0 C4.95 0 9.9 0 15 0 C15 4.95 15 9.9 15 15 C10.05 15 5.1 15 0 15 C0 10.05 0 5.1 0 0 Z " fill="#FFFFFF" transform="translate(330,330)"/>
<path d="M0 0 C4.95 0 9.9 0 15 0 C15 4.95 15 9.9 15 15 C10.05 15 5.1 15 0 15 C0 10.05 0 5.1 0 0 Z " fill="#EFEFEF" transform="translate(315,330)"/>
<path d="M0 0 C4.95 0 9.9 0 15 0 C15 4.95 15 9.9 15 15 C10.05 15 5.1 15 0 15 C0 10.05 0 5.1 0 0 Z " fill="#FFFFFF" transform="translate(300,330)"/>
<path d="M0 0 C4.95 0 9.9 0 15 0 C15 4.95 15 9.9 15 15 C10.05 15 5.1 15 0 15 C0 10.05 0 5.1 0 0 Z " fill="#EFEFEF" transform="translate(285,330)"/>
<path d="M0 0 C4.95 0 9.9 0 15 0 C15 4.95 15 9.9 15 15 C10.05 15 5.1 15 0 15 C0 10.05 0 5.1 0 0 Z " fill="#FFFFFF" transform="translate(270,330)"/>
<path d="M0 0 C4.95 0 9.9 0 15 0 C15 4.95 15 9.9 15 15 C10.05 15 5.1 15 0 15 C0 10.05 0 5.1 0 0 Z " fill="#FFFFFF" transform="translate(60,330)"/>
<path d="M0 0 C4.95 0 9.9 0 15 0 C15 4.95 15 9.9 15 15 C10.05 15 5.1 15 0 15 C0 10.05 0 5.1 0 0 Z " fill="#FFFFFF" transform="translate(30,330)"/>
<path d="M0 0 C4.95 0 9.9 0 15 0 C15 4.95 15 9.9 15 15 C10.05 15 5.1 15 0 15 C0 10.05 0 5.1 0 0 Z " fill="#EFEFEF" transform="translate(15,330)"/>
<path d="M0 0 C4.95 0 9.9 0 15 0 C15 4.95 15 9.9 15 15 C10.05 15 5.1 15 0 15 C0 10.05 0 5.1 0 0 Z " fill="#FFFFFF" transform="translate(315,315)"/>
<path d="M0 0 C4.95 0 9.9 0 15 0 C15 4.95 15 9.9 15 15 C10.05 15 5.1 15 0 15 C0 10.05 0 5.1 0 0 Z " fill="#EFEFEF" transform="translate(300,315)"/>
<path d="M0 0 C4.95 0 9.9 0 15 0 C15 4.95 15 9.9 15 15 C10.05 15 5.1 15 0 15 C0 10.05 0 5.1 0 0 Z " fill="#FFFFFF" transform="translate(285,315)"/>
<path d="M0 0 C4.95 0 9.9 0 15 0 C15 4.95 15 9.9 15 15 C10.05 15 5.1 15 0 15 C0 10.05 0 5.1 0 0 Z " fill="#EFEFEF" transform="translate(270,315)"/>
<path d="M0 0 C4.95 0 9.9 0 15 0 C15 4.95 15 9.9 15 15 C10.05 15 5.1 15 0 15 C0 10.05 0 5.1 0 0 Z " fill="#EFEFEF" transform="translate(60,315)"/>
<path d="M0 0 C4.95 0 9.9 0 15 0 C15 4.95 15 9.9 15 15 C10.05 15 5.1 15 0 15 C0 10.05 0 5.1 0 0 Z " fill="#FFFFFF" transform="translate(45,315)"/>
<path d="M0 0 C4.95 0 9.9 0 15 0 C15 4.95 15 9.9 15 15 C10.05 15 5.1 15 0 15 C0 10.05 0 5.1 0 0 Z " fill="#EFEFEF" transform="translate(30,315)"/>
<path d="M0 0 C4.95 0 9.9 0 15 0 C15 4.95 15 9.9 15 15 C10.05 15 5.1 15 0 15 C0 10.05 0 5.1 0 0 Z " fill="#FFFFFF" transform="translate(15,315)"/>
<path d="M0 0 C4.95 0 9.9 0 15 0 C15 4.95 15 9.9 15 15 C10.05 15 5.1 15 0 15 C0 10.05 0 5.1 0 0 Z " fill="#EFEFEF" transform="translate(0,315)"/>
<path d="M0 0 C4.95 0 9.9 0 15 0 C15 4.95 15 9.9 15 15 C10.05 15 5.1 15 0 15 C0 10.05 0 5.1 0 0 Z " fill="#FFFFFF" transform="translate(330,300)"/>
<path d="M0 0 C4.95 0 9.9 0 15 0 C15 4.95 15 9.9 15 15 C10.05 15 5.1 15 0 15 C0 10.05 0 5.1 0 0 Z " fill="#EFEFEF" transform="translate(315,300)"/>
<path d="M0 0 C4.95 0 9.9 0 15 0 C15 4.95 15 9.9 15 15 C10.05 15 5.1 15 0 15 C0 10.05 0 5.1 0 0 Z " fill="#FFFFFF" transform="translate(300,300)"/>
<path d="M0 0 C4.95 0 9.9 0 15 0 C15 4.95 15 9.9 15 15 C10.05 15 5.1 15 0 15 C0 10.05 0 5.1 0 0 Z " fill="#EFEFEF" transform="translate(285,300)"/>
<path d="M0 0 C4.95 0 9.9 0 15 0 C15 4.95 15 9.9 15 15 C10.05 15 5.1 15 0 15 C0 10.05 0 5.1 0 0 Z " fill="#FFFFFF" transform="translate(180,300)"/>
<path d="M0 0 C4.95 0 9.9 0 15 0 C15 4.95 15 9.9 15 15 C10.05 15 5.1 15 0 15 C0 10.05 0 5.1 0 0 Z " fill="#EFEFEF" transform="translate(165,300)"/>
<path d="M0 0 C4.95 0 9.9 0 15 0 C15 4.95 15 9.9 15 15 C10.05 15 5.1 15 0 15 C0 10.05 0 5.1 0 0 Z " fill="#FFFFFF" transform="translate(150,300)"/>
<path d="M0 0 C4.95 0 9.9 0 15 0 C15 4.95 15 9.9 15 15 C10.05 15 5.1 15 0 15 C0 10.05 0 5.1 0 0 Z " fill="#FFFFFF" transform="translate(30,300)"/>
<path d="M0 0 C4.95 0 9.9 0 15 0 C15 4.95 15 9.9 15 15 C10.05 15 5.1 15 0 15 C0 10.05 0 5.1 0 0 Z " fill="#EFEFEF" transform="translate(15,300)"/>
<path d="M0 0 C4.95 0 9.9 0 15 0 C15 4.95 15 9.9 15 15 C10.05 15 5.1 15 0 15 C0 10.05 0 5.1 0 0 Z " fill="#FFFFFF" transform="translate(0,300)"/>
<path d="M0 0 C4.95 0 9.9 0 15 0 C15 4.95 15 9.9 15 15 C10.05 15 5.1 15 0 15 C0 10.05 0 5.1 0 0 Z " fill="#FFFFFF" transform="translate(315,285)"/>
<path d="M0 0 C4.95 0 9.9 0 15 0 C15 4.95 15 9.9 15 15 C10.05 15 5.1 15 0 15 C0 10.05 0 5.1 0 0 Z " fill="#FFFFFF" transform="translate(225,285)"/>
<path d="M0 0 C4.95 0 9.9 0 15 0 C15 4.95 15 9.9 15 15 C10.05 15 5.1 15 0 15 C0 10.05 0 5.1 0 0 Z " fill="#EFEFEF" transform="translate(210,285)"/>
<path d="M0 0 C4.95 0 9.9 0 15 0 C15 4.95 15 9.9 15 15 C10.05 15 5.1 15 0 15 C0 10.05 0 5.1 0 0 Z " fill="#FFFFFF" transform="translate(195,285)"/>
<path d="M0 0 C4.95 0 9.9 0 15 0 C15 4.95 15 9.9 15 15 C10.05 15 5.1 15 0 15 C0 10.05 0 5.1 0 0 Z " fill="#EFEFEF" transform="translate(180,285)"/>
<path d="M0 0 C4.95 0 9.9 0 15 0 C15 4.95 15 9.9 15 15 C10.05 15 5.1 15 0 15 C0 10.05 0 5.1 0 0 Z " fill="#FFFFFF" transform="translate(165,285)"/>
<path d="M0 0 C4.95 0 9.9 0 15 0 C15 4.95 15 9.9 15 15 C10.05 15 5.1 15 0 15 C0 10.05 0 5.1 0 0 Z " fill="#EFEFEF" transform="translate(150,285)"/>
<path d="M0 0 C4.95 0 9.9 0 15 0 C15 4.95 15 9.9 15 15 C10.05 15 5.1 15 0 15 C0 10.05 0 5.1 0 0 Z " fill="#FFFFFF" transform="translate(135,285)"/>
<path d="M0 0 C4.95 0 9.9 0 15 0 C15 4.95 15 9.9 15 15 C10.05 15 5.1 15 0 15 C0 10.05 0 5.1 0 0 Z " fill="#EFEFEF" transform="translate(120,285)"/>
<path d="M0 0 C4.95 0 9.9 0 15 0 C15 4.95 15 9.9 15 15 C10.05 15 5.1 15 0 15 C0 10.05 0 5.1 0 0 Z " fill="#FFFFFF" transform="translate(105,285)"/>
<path d="M0 0 C4.95 0 9.9 0 15 0 C15 4.95 15 9.9 15 15 C10.05 15 5.1 15 0 15 C0 10.05 0 5.1 0 0 Z " fill="#FFFFFF" transform="translate(15,285)"/>
<path d="M0 0 C4.95 0 9.9 0 15 0 C15 4.95 15 9.9 15 15 C10.05 15 5.1 15 0 15 C0 10.05 0 5.1 0 0 Z " fill="#EFEFEF" transform="translate(0,285)"/>
<path d="M0 0 C4.95 0 9.9 0 15 0 C15 4.95 15 9.9 15 15 C10.05 15 5.1 15 0 15 C0 10.05 0 5.1 0 0 Z " fill="#FFFFFF" transform="translate(330,270)"/>
<path d="M0 0 C4.95 0 9.9 0 15 0 C15 4.95 15 9.9 15 15 C10.05 15 5.1 15 0 15 C0 10.05 0 5.1 0 0 Z " fill="#FFFFFF" transform="translate(240,270)"/>
<path d="M0 0 C4.95 0 9.9 0 15 0 C15 4.95 15 9.9 15 15 C10.05 15 5.1 15 0 15 C0 10.05 0 5.1 0 0 Z " fill="#EFEFEF" transform="translate(105,270)"/>
<path d="M0 0 C4.95 0 9.9 0 15 0 C15 4.95 15 9.9 15 15 C10.05 15 5.1 15 0 15 C0 10.05 0 5.1 0 0 Z " fill="#FFFFFF" transform="translate(90,270)"/>
<path d="M0 0 C4.95 0 9.9 0 15 0 C15 4.95 15 9.9 15 15 C10.05 15 5.1 15 0 15 C0 10.05 0 5.1 0 0 Z " fill="#FFFFFF" transform="translate(0,270)"/>
<path d="M0 0 C4.95 0 9.9 0 15 0 C15 4.95 15 9.9 15 15 C10.05 15 5.1 15 0 15 C0 10.05 0 5.1 0 0 Z " fill="#EFEFEF" transform="translate(270,255)"/>
<path d="M0 0 C4.95 0 9.9 0 15 0 C15 4.95 15 9.9 15 15 C10.05 15 5.1 15 0 15 C0 10.05 0 5.1 0 0 Z " fill="#FFFFFF" transform="translate(255,255)"/>
<path d="M0 0 C4.95 0 9.9 0 15 0 C15 4.95 15 9.9 15 15 C10.05 15 5.1 15 0 15 C0 10.05 0 5.1 0 0 Z " fill="#FFFFFF" transform="translate(75,255)"/>
<path d="M0 0 C4.95 0 9.9 0 15 0 C15 4.95 15 9.9 15 15 C10.05 15 5.1 15 0 15 C0 10.05 0 5.1 0 0 Z " fill="#EFEFEF" transform="translate(60,255)"/>
<path d="M0 0 C4.95 0 9.9 0 15 0 C15 4.95 15 9.9 15 15 C10.05 15 5.1 15 0 15 C0 10.05 0 5.1 0 0 Z " fill="#EFEFEF" transform="translate(0,255)"/>
<path d="M0 0 C4.95 0 9.9 0 15 0 C15 4.95 15 9.9 15 15 C10.05 15 5.1 15 0 15 C0 10.05 0 5.1 0 0 Z " fill="#FFFFFF" transform="translate(330,240)"/>
<path d="M0 0 C4.95 0 9.9 0 15 0 C15 4.95 15 9.9 15 15 C10.05 15 5.1 15 0 15 C0 10.05 0 5.1 0 0 Z " fill="#FFFFFF" transform="translate(270,240)"/>
<path d="M0 0 C4.95 0 9.9 0 15 0 C15 4.95 15 9.9 15 15 C10.05 15 5.1 15 0 15 C0 10.05 0 5.1 0 0 Z " fill="#FFFFFF" transform="translate(180,240)"/>
<path d="M0 0 C4.95 0 9.9 0 15 0 C15 4.95 15 9.9 15 15 C10.05 15 5.1 15 0 15 C0 10.05 0 5.1 0 0 Z " fill="#FFFFFF" transform="translate(150,240)"/>
<path d="M0 0 C4.95 0 9.9 0 15 0 C15 4.95 15 9.9 15 15 C10.05 15 5.1 15 0 15 C0 10.05 0 5.1 0 0 Z " fill="#FFFFFF" transform="translate(60,240)"/>
<path d="M0 0 C4.95 0 9.9 0 15 0 C15 4.95 15 9.9 15 15 C10.05 15 5.1 15 0 15 C0 10.05 0 5.1 0 0 Z " fill="#FFFFFF" transform="translate(0,240)"/>
<path d="M0 0 C4.95 0 9.9 0 15 0 C15 4.95 15 9.9 15 15 C10.05 15 5.1 15 0 15 C0 10.05 0 5.1 0 0 Z " fill="#EFEFEF" transform="translate(270,225)"/>
<path d="M0 0 C4.95 0 9.9 0 15 0 C15 4.95 15 9.9 15 15 C10.05 15 5.1 15 0 15 C0 10.05 0 5.1 0 0 Z " fill="#EFEFEF" transform="translate(210,225)"/>
<path d="M0 0 C4.95 0 9.9 0 15 0 C15 4.95 15 9.9 15 15 C10.05 15 5.1 15 0 15 C0 10.05 0 5.1 0 0 Z " fill="#FFFFFF" transform="translate(195,225)"/>
<path d="M0 0 C4.95 0 9.9 0 15 0 C15 4.95 15 9.9 15 15 C10.05 15 5.1 15 0 15 C0 10.05 0 5.1 0 0 Z " fill="#EFEFEF" transform="translate(180,225)"/>
<path d="M0 0 C4.95 0 9.9 0 15 0 C15 4.95 15 9.9 15 15 C10.05 15 5.1 15 0 15 C0 10.05 0 5.1 0 0 Z " fill="#FFFFFF" transform="translate(165,225)"/>
<path d="M0 0 C4.95 0 9.9 0 15 0 C15 4.95 15 9.9 15 15 C10.05 15 5.1 15 0 15 C0 10.05 0 5.1 0 0 Z " fill="#EFEFEF" transform="translate(150,225)"/>
<path d="M0 0 C4.95 0 9.9 0 15 0 C15 4.95 15 9.9 15 15 C10.05 15 5.1 15 0 15 C0 10.05 0 5.1 0 0 Z " fill="#FFFFFF" transform="translate(135,225)"/>
<path d="M0 0 C4.95 0 9.9 0 15 0 C15 4.95 15 9.9 15 15 C10.05 15 5.1 15 0 15 C0 10.05 0 5.1 0 0 Z " fill="#EFEFEF" transform="translate(120,225)"/>
<path d="M0 0 C4.95 0 9.9 0 15 0 C15 4.95 15 9.9 15 15 C10.05 15 5.1 15 0 15 C0 10.05 0 5.1 0 0 Z " fill="#EFEFEF" transform="translate(60,225)"/>
<path d="M0 0 C4.95 0 9.9 0 15 0 C15 4.95 15 9.9 15 15 C10.05 15 5.1 15 0 15 C0 10.05 0 5.1 0 0 Z " fill="#EFEFEF" transform="translate(285,210)"/>
<path d="M0 0 C4.95 0 9.9 0 15 0 C15 4.95 15 9.9 15 15 C10.05 15 5.1 15 0 15 C0 10.05 0 5.1 0 0 Z " fill="#EFEFEF" transform="translate(225,210)"/>
<path d="M0 0 C4.95 0 9.9 0 15 0 C15 4.95 15 9.9 15 15 C10.05 15 5.1 15 0 15 C0 10.05 0 5.1 0 0 Z " fill="#FFFFFF" transform="translate(210,210)"/>
<path d="M0 0 C4.95 0 9.9 0 15 0 C15 4.95 15 9.9 15 15 C10.05 15 5.1 15 0 15 C0 10.05 0 5.1 0 0 Z " fill="#EFEFEF" transform="translate(195,210)"/>
<path d="M0 0 C4.95 0 9.9 0 15 0 C15 4.95 15 9.9 15 15 C10.05 15 5.1 15 0 15 C0 10.05 0 5.1 0 0 Z " fill="#FFFFFF" transform="translate(180,210)"/>
<path d="M0 0 C4.95 0 9.9 0 15 0 C15 4.95 15 9.9 15 15 C10.05 15 5.1 15 0 15 C0 10.05 0 5.1 0 0 Z " fill="#EFEFEF" transform="translate(165,210)"/>
<path d="M0 0 C4.95 0 9.9 0 15 0 C15 4.95 15 9.9 15 15 C10.05 15 5.1 15 0 15 C0 10.05 0 5.1 0 0 Z " fill="#EFEFEF" transform="translate(135,210)"/>
<path d="M0 0 C4.95 0 9.9 0 15 0 C15 4.95 15 9.9 15 15 C10.05 15 5.1 15 0 15 C0 10.05 0 5.1 0 0 Z " fill="#FFFFFF" transform="translate(120,210)"/>
<path d="M0 0 C4.95 0 9.9 0 15 0 C15 4.95 15 9.9 15 15 C10.05 15 5.1 15 0 15 C0 10.05 0 5.1 0 0 Z " fill="#EFEFEF" transform="translate(105,210)"/>
<path d="M0 0 C4.95 0 9.9 0 15 0 C15 4.95 15 9.9 15 15 C10.05 15 5.1 15 0 15 C0 10.05 0 5.1 0 0 Z " fill="#EFEFEF" transform="translate(45,210)"/>
<path d="M0 0 C4.95 0 9.9 0 15 0 C15 4.95 15 9.9 15 15 C10.05 15 5.1 15 0 15 C0 10.05 0 5.1 0 0 Z " fill="#EFEFEF" transform="translate(300,195)"/>
<path d="M0 0 C4.95 0 9.9 0 15 0 C15 4.95 15 9.9 15 15 C10.05 15 5.1 15 0 15 C0 10.05 0 5.1 0 0 Z " fill="#FFFFFF" transform="translate(285,195)"/>
<path d="M0 0 C4.95 0 9.9 0 15 0 C15 4.95 15 9.9 15 15 C10.05 15 5.1 15 0 15 C0 10.05 0 5.1 0 0 Z " fill="#FFFFFF" transform="translate(225,195)"/>
<path d="M0 0 C4.95 0 9.9 0 15 0 C15 4.95 15 9.9 15 15 C10.05 15 5.1 15 0 15 C0 10.05 0 5.1 0 0 Z " fill="#EFEFEF" transform="translate(210,195)"/>
<path d="M0 0 C4.95 0 9.9 0 15 0 C15 4.95 15 9.9 15 15 C10.05 15 5.1 15 0 15 C0 10.05 0 5.1 0 0 Z " fill="#FFFFFF" transform="translate(195,195)"/>
<path d="M0 0 C4.95 0 9.9 0 15 0 C15 4.95 15 9.9 15 15 C10.05 15 5.1 15 0 15 C0 10.05 0 5.1 0 0 Z " fill="#EFEFEF" transform="translate(180,195)"/>
<path d="M0 0 C4.95 0 9.9 0 15 0 C15 4.95 15 9.9 15 15 C10.05 15 5.1 15 0 15 C0 10.05 0 5.1 0 0 Z " fill="#EFEFEF" transform="translate(120,195)"/>
<path d="M0 0 C4.95 0 9.9 0 15 0 C15 4.95 15 9.9 15 15 C10.05 15 5.1 15 0 15 C0 10.05 0 5.1 0 0 Z " fill="#FFFFFF" transform="translate(105,195)"/>
<path d="M0 0 C4.95 0 9.9 0 15 0 C15 4.95 15 9.9 15 15 C10.05 15 5.1 15 0 15 C0 10.05 0 5.1 0 0 Z " fill="#FFFFFF" transform="translate(45,195)"/>
<path d="M0 0 C4.95 0 9.9 0 15 0 C15 4.95 15 9.9 15 15 C10.05 15 5.1 15 0 15 C0 10.05 0 5.1 0 0 Z " fill="#EFEFEF" transform="translate(30,195)"/>
<path d="M0 0 C4.95 0 9.9 0 15 0 C15 4.95 15 9.9 15 15 C10.05 15 5.1 15 0 15 C0 10.05 0 5.1 0 0 Z " fill="#EFEFEF" transform="translate(285,180)"/>
<path d="M0 0 C4.95 0 9.9 0 15 0 C15 4.95 15 9.9 15 15 C10.05 15 5.1 15 0 15 C0 10.05 0 5.1 0 0 Z " fill="#FFFFFF" transform="translate(240,180)"/>
<path d="M0 0 C4.95 0 9.9 0 15 0 C15 4.95 15 9.9 15 15 C10.05 15 5.1 15 0 15 C0 10.05 0 5.1 0 0 Z " fill="#EFEFEF" transform="translate(225,180)"/>
<path d="M0 0 C4.95 0 9.9 0 15 0 C15 4.95 15 9.9 15 15 C10.05 15 5.1 15 0 15 C0 10.05 0 5.1 0 0 Z " fill="#FFFFFF" transform="translate(210,180)"/>
<path d="M0 0 C4.95 0 9.9 0 15 0 C15 4.95 15 9.9 15 15 C10.05 15 5.1 15 0 15 C0 10.05 0 5.1 0 0 Z " fill="#EFEFEF" transform="translate(195,180)"/>
<path d="M0 0 C4.95 0 9.9 0 15 0 C15 4.95 15 9.9 15 15 C10.05 15 5.1 15 0 15 C0 10.05 0 5.1 0 0 Z " fill="#EFEFEF" transform="translate(105,180)"/>
<path d="M0 0 C4.95 0 9.9 0 15 0 C15 4.95 15 9.9 15 15 C10.05 15 5.1 15 0 15 C0 10.05 0 5.1 0 0 Z " fill="#FFFFFF" transform="translate(285,165)"/>
<path d="M0 0 C4.95 0 9.9 0 15 0 C15 4.95 15 9.9 15 15 C10.05 15 5.1 15 0 15 C0 10.05 0 5.1 0 0 Z " fill="#EFEFEF" transform="translate(240,165)"/>
<path d="M0 0 C4.95 0 9.9 0 15 0 C15 4.95 15 9.9 15 15 C10.05 15 5.1 15 0 15 C0 10.05 0 5.1 0 0 Z " fill="#FFFFFF" transform="translate(225,165)"/>
<path d="M0 0 C4.95 0 9.9 0 15 0 C15 4.95 15 9.9 15 15 C10.05 15 5.1 15 0 15 C0 10.05 0 5.1 0 0 Z " fill="#FFFFFF" transform="translate(105,165)"/>
<path d="M0 0 C4.95 0 9.9 0 15 0 C15 4.95 15 9.9 15 15 C10.05 15 5.1 15 0 15 C0 10.05 0 5.1 0 0 Z " fill="#EFEFEF" transform="translate(90,165)"/>
<path d="M0 0 C4.95 0 9.9 0 15 0 C15 4.95 15 9.9 15 15 C10.05 15 5.1 15 0 15 C0 10.05 0 5.1 0 0 Z " fill="#FFFFFF" transform="translate(45,165)"/>
<path d="M0 0 C4.95 0 9.9 0 15 0 C15 4.95 15 9.9 15 15 C10.05 15 5.1 15 0 15 C0 10.05 0 5.1 0 0 Z " fill="#FFFFFF" transform="translate(300,150)"/>
<path d="M0 0 C4.95 0 9.9 0 15 0 C15 4.95 15 9.9 15 15 C10.05 15 5.1 15 0 15 C0 10.05 0 5.1 0 0 Z " fill="#EFEFEF" transform="translate(225,150)"/>
<path d="M0 0 C4.95 0 9.9 0 15 0 C15 4.95 15 9.9 15 15 C10.05 15 5.1 15 0 15 C0 10.05 0 5.1 0 0 Z " fill="#EFEFEF" transform="translate(165,150)"/>
<path d="M0 0 C4.95 0 9.9 0 15 0 C15 4.95 15 9.9 15 15 C10.05 15 5.1 15 0 15 C0 10.05 0 5.1 0 0 Z " fill="#FFFFFF" transform="translate(150,150)"/>
<path d="M0 0 C4.95 0 9.9 0 15 0 C15 4.95 15 9.9 15 15 C10.05 15 5.1 15 0 15 C0 10.05 0 5.1 0 0 Z " fill="#FFFFFF" transform="translate(120,150)"/>
<path d="M0 0 C4.95 0 9.9 0 15 0 C15 4.95 15 9.9 15 15 C10.05 15 5.1 15 0 15 C0 10.05 0 5.1 0 0 Z " fill="#EFEFEF" transform="translate(45,150)"/>
<path d="M0 0 C4.95 0 9.9 0 15 0 C15 4.95 15 9.9 15 15 C10.05 15 5.1 15 0 15 C0 10.05 0 5.1 0 0 Z " fill="#EFEFEF" transform="translate(300,135)"/>
<path d="M0 0 C4.95 0 9.9 0 15 0 C15 4.95 15 9.9 15 15 C10.05 15 5.1 15 0 15 C0 10.05 0 5.1 0 0 Z " fill="#FFFFFF" transform="translate(285,135)"/>
<path d="M0 0 C4.95 0 9.9 0 15 0 C15 4.95 15 9.9 15 15 C10.05 15 5.1 15 0 15 C0 10.05 0 5.1 0 0 Z " fill="#FFFFFF" transform="translate(225,135)"/>
<path d="M0 0 C4.95 0 9.9 0 15 0 C15 4.95 15 9.9 15 15 C10.05 15 5.1 15 0 15 C0 10.05 0 5.1 0 0 Z " fill="#EFEFEF" transform="translate(180,135)"/>
<path d="M0 0 C4.95 0 9.9 0 15 0 C15 4.95 15 9.9 15 15 C10.05 15 5.1 15 0 15 C0 10.05 0 5.1 0 0 Z " fill="#FFFFFF" transform="translate(165,135)"/>
<path d="M0 0 C4.95 0 9.9 0 15 0 C15 4.95 15 9.9 15 15 C10.05 15 5.1 15 0 15 C0 10.05 0 5.1 0 0 Z " fill="#EFEFEF" transform="translate(150,135)"/>
<path d="M0 0 C4.95 0 9.9 0 15 0 C15 4.95 15 9.9 15 15 C10.05 15 5.1 15 0 15 C0 10.05 0 5.1 0 0 Z " fill="#FFFFFF" transform="translate(135,135)"/>
<path d="M0 0 C4.95 0 9.9 0 15 0 C15 4.95 15 9.9 15 15 C10.05 15 5.1 15 0 15 C0 10.05 0 5.1 0 0 Z " fill="#EFEFEF" transform="translate(120,135)"/>
<path d="M0 0 C4.95 0 9.9 0 15 0 C15 4.95 15 9.9 15 15 C10.05 15 5.1 15 0 15 C0 10.05 0 5.1 0 0 Z " fill="#FFFFFF" transform="translate(105,135)"/>
<path d="M0 0 C4.95 0 9.9 0 15 0 C15 4.95 15 9.9 15 15 C10.05 15 5.1 15 0 15 C0 10.05 0 5.1 0 0 Z " fill="#FFFFFF" transform="translate(45,135)"/>
<path d="M0 0 C4.95 0 9.9 0 15 0 C15 4.95 15 9.9 15 15 C10.05 15 5.1 15 0 15 C0 10.05 0 5.1 0 0 Z " fill="#EFEFEF" transform="translate(30,135)"/>
<path d="M0 0 C4.95 0 9.9 0 15 0 C15 4.95 15 9.9 15 15 C10.05 15 5.1 15 0 15 C0 10.05 0 5.1 0 0 Z " fill="#EFEFEF" transform="translate(285,120)"/>
<path d="M0 0 C4.95 0 9.9 0 15 0 C15 4.95 15 9.9 15 15 C10.05 15 5.1 15 0 15 C0 10.05 0 5.1 0 0 Z " fill="#FFFFFF" transform="translate(210,120)"/>
<path d="M0 0 C4.95 0 9.9 0 15 0 C15 4.95 15 9.9 15 15 C10.05 15 5.1 15 0 15 C0 10.05 0 5.1 0 0 Z " fill="#FFFFFF" transform="translate(180,120)"/>
<path d="M0 0 C4.95 0 9.9 0 15 0 C15 4.95 15 9.9 15 15 C10.05 15 5.1 15 0 15 C0 10.05 0 5.1 0 0 Z " fill="#EFEFEF" transform="translate(165,120)"/>
<path d="M0 0 C4.95 0 9.9 0 15 0 C15 4.95 15 9.9 15 15 C10.05 15 5.1 15 0 15 C0 10.05 0 5.1 0 0 Z " fill="#FFFFFF" transform="translate(150,120)"/>
<path d="M0 0 C4.95 0 9.9 0 15 0 C15 4.95 15 9.9 15 15 C10.05 15 5.1 15 0 15 C0 10.05 0 5.1 0 0 Z " fill="#EFEFEF" transform="translate(135,120)"/>
<path d="M0 0 C4.95 0 9.9 0 15 0 C15 4.95 15 9.9 15 15 C10.05 15 5.1 15 0 15 C0 10.05 0 5.1 0 0 Z " fill="#FFFFFF" transform="translate(120,120)"/>
<path d="M0 0 C4.95 0 9.9 0 15 0 C15 4.95 15 9.9 15 15 C10.05 15 5.1 15 0 15 C0 10.05 0 5.1 0 0 Z " fill="#FFFFFF" transform="translate(60,120)"/>
<path d="M0 0 C4.95 0 9.9 0 15 0 C15 4.95 15 9.9 15 15 C10.05 15 5.1 15 0 15 C0 10.05 0 5.1 0 0 Z " fill="#EFEFEF" transform="translate(270,105)"/>
<path d="M0 0 C4.95 0 9.9 0 15 0 C15 4.95 15 9.9 15 15 C10.05 15 5.1 15 0 15 C0 10.05 0 5.1 0 0 Z " fill="#FFFFFF" transform="translate(195,105)"/>
<path d="M0 0 C4.95 0 9.9 0 15 0 C15 4.95 15 9.9 15 15 C10.05 15 5.1 15 0 15 C0 10.05 0 5.1 0 0 Z " fill="#FFFFFF" transform="translate(165,105)"/>
<path d="M0 0 C4.95 0 9.9 0 15 0 C15 4.95 15 9.9 15 15 C10.05 15 5.1 15 0 15 C0 10.05 0 5.1 0 0 Z " fill="#EFEFEF" transform="translate(150,105)"/>
<path d="M0 0 C4.95 0 9.9 0 15 0 C15 4.95 15 9.9 15 15 C10.05 15 5.1 15 0 15 C0 10.05 0 5.1 0 0 Z " fill="#FFFFFF" transform="translate(135,105)"/>
<path d="M0 0 C4.95 0 9.9 0 15 0 C15 4.95 15 9.9 15 15 C10.05 15 5.1 15 0 15 C0 10.05 0 5.1 0 0 Z " fill="#EFEFEF" transform="translate(60,105)"/>
<path d="M0 0 C4.95 0 9.9 0 15 0 C15 4.95 15 9.9 15 15 C10.05 15 5.1 15 0 15 C0 10.05 0 5.1 0 0 Z " fill="#FFFFFF" transform="translate(270,90)"/>
<path d="M0 0 C4.95 0 9.9 0 15 0 C15 4.95 15 9.9 15 15 C10.05 15 5.1 15 0 15 C0 10.05 0 5.1 0 0 Z " fill="#EFEFEF" transform="translate(255,90)"/>
<path d="M0 0 C4.95 0 9.9 0 15 0 C15 4.95 15 9.9 15 15 C10.05 15 5.1 15 0 15 C0 10.05 0 5.1 0 0 Z " fill="#EFEFEF" transform="translate(75,90)"/>
<path d="M0 0 C4.95 0 9.9 0 15 0 C15 4.95 15 9.9 15 15 C10.05 15 5.1 15 0 15 C0 10.05 0 5.1 0 0 Z " fill="#FFFFFF" transform="translate(60,90)"/>
<path d="M0 0 C4.95 0 9.9 0 15 0 C15 4.95 15 9.9 15 15 C10.05 15 5.1 15 0 15 C0 10.05 0 5.1 0 0 Z " fill="#FFFFFF" transform="translate(0,90)"/>
<path d="M0 0 C4.95 0 9.9 0 15 0 C15 4.95 15 9.9 15 15 C10.05 15 5.1 15 0 15 C0 10.05 0 5.1 0 0 Z " fill="#EFEFEF" transform="translate(270,75)"/>
<path d="M0 0 C4.95 0 9.9 0 15 0 C15 4.95 15 9.9 15 15 C10.05 15 5.1 15 0 15 C0 10.05 0 5.1 0 0 Z " fill="#FFFFFF" transform="translate(255,75)"/>
<path d="M0 0 C4.95 0 9.9 0 15 0 C15 4.95 15 9.9 15 15 C10.05 15 5.1 15 0 15 C0 10.05 0 5.1 0 0 Z " fill="#EFEFEF" transform="translate(240,75)"/>
<path d="M0 0 C4.95 0 9.9 0 15 0 C15 4.95 15 9.9 15 15 C10.05 15 5.1 15 0 15 C0 10.05 0 5.1 0 0 Z " fill="#EFEFEF" transform="translate(90,75)"/>
<path d="M0 0 C4.95 0 9.9 0 15 0 C15 4.95 15 9.9 15 15 C10.05 15 5.1 15 0 15 C0 10.05 0 5.1 0 0 Z " fill="#FFFFFF" transform="translate(75,75)"/>
<path d="M0 0 C4.95 0 9.9 0 15 0 C15 4.95 15 9.9 15 15 C10.05 15 5.1 15 0 15 C0 10.05 0 5.1 0 0 Z " fill="#EFEFEF" transform="translate(0,75)"/>
<path d="M0 0 C4.95 0 9.9 0 15 0 C15 4.95 15 9.9 15 15 C10.05 15 5.1 15 0 15 C0 10.05 0 5.1 0 0 Z " fill="#FFFFFF" transform="translate(240,60)"/>
<path d="M0 0 C4.95 0 9.9 0 15 0 C15 4.95 15 9.9 15 15 C10.05 15 5.1 15 0 15 C0 10.05 0 5.1 0 0 Z " fill="#EFEFEF" transform="translate(225,60)"/>
<path d="M0 0 C4.95 0 9.9 0 15 0 C15 4.95 15 9.9 15 15 C10.05 15 5.1 15 0 15 C0 10.05 0 5.1 0 0 Z " fill="#FFFFFF" transform="translate(210,60)"/>
<path d="M0 0 C4.95 0 9.9 0 15 0 C15 4.95 15 9.9 15 15 C10.05 15 5.1 15 0 15 C0 10.05 0 5.1 0 0 Z " fill="#FFFFFF" transform="translate(120,60)"/>
<path d="M0 0 C4.95 0 9.9 0 15 0 C15 4.95 15 9.9 15 15 C10.05 15 5.1 15 0 15 C0 10.05 0 5.1 0 0 Z " fill="#EFEFEF" transform="translate(105,60)"/>
<path d="M0 0 C4.95 0 9.9 0 15 0 C15 4.95 15 9.9 15 15 C10.05 15 5.1 15 0 15 C0 10.05 0 5.1 0 0 Z " fill="#FFFFFF" transform="translate(0,60)"/>
<path d="M0 0 C4.95 0 9.9 0 15 0 C15 4.95 15 9.9 15 15 C10.05 15 5.1 15 0 15 C0 10.05 0 5.1 0 0 Z " fill="#EFEFEF" transform="translate(330,45)"/>
<path d="M0 0 C4.95 0 9.9 0 15 0 C15 4.95 15 9.9 15 15 C10.05 15 5.1 15 0 15 C0 10.05 0 5.1 0 0 Z " fill="#FFFFFF" transform="translate(315,45)"/>
<path d="M0 0 C4.95 0 9.9 0 15 0 C15 4.95 15 9.9 15 15 C10.05 15 5.1 15 0 15 C0 10.05 0 5.1 0 0 Z " fill="#FFFFFF" transform="translate(225,45)"/>
<path d="M0 0 C4.95 0 9.9 0 15 0 C15 4.95 15 9.9 15 15 C10.05 15 5.1 15 0 15 C0 10.05 0 5.1 0 0 Z " fill="#FFFFFF" transform="translate(195,45)"/>
<path d="M0 0 C4.95 0 9.9 0 15 0 C15 4.95 15 9.9 15 15 C10.05 15 5.1 15 0 15 C0 10.05 0 5.1 0 0 Z " fill="#EFEFEF" transform="translate(180,45)"/>
<path d="M0 0 C4.95 0 9.9 0 15 0 C15 4.95 15 9.9 15 15 C10.05 15 5.1 15 0 15 C0 10.05 0 5.1 0 0 Z " fill="#FFFFFF" transform="translate(165,45)"/>
<path d="M0 0 C4.95 0 9.9 0 15 0 C15 4.95 15 9.9 15 15 C10.05 15 5.1 15 0 15 C0 10.05 0 5.1 0 0 Z " fill="#EFEFEF" transform="translate(150,45)"/>
<path d="M0 0 C4.95 0 9.9 0 15 0 C15 4.95 15 9.9 15 15 C10.05 15 5.1 15 0 15 C0 10.05 0 5.1 0 0 Z " fill="#FFFFFF" transform="translate(135,45)"/>
<path d="M0 0 C4.95 0 9.9 0 15 0 C15 4.95 15 9.9 15 15 C10.05 15 5.1 15 0 15 C0 10.05 0 5.1 0 0 Z " fill="#EFEFEF" transform="translate(120,45)"/>
<path d="M0 0 C4.95 0 9.9 0 15 0 C15 4.95 15 9.9 15 15 C10.05 15 5.1 15 0 15 C0 10.05 0 5.1 0 0 Z " fill="#FFFFFF" transform="translate(105,45)"/>
<path d="M0 0 C4.95 0 9.9 0 15 0 C15 4.95 15 9.9 15 15 C10.05 15 5.1 15 0 15 C0 10.05 0 5.1 0 0 Z " fill="#FFFFFF" transform="translate(15,45)"/>
<path d="M0 0 C4.95 0 9.9 0 15 0 C15 4.95 15 9.9 15 15 C10.05 15 5.1 15 0 15 C0 10.05 0 5.1 0 0 Z " fill="#EFEFEF" transform="translate(0,45)"/>
<path d="M0 0 C4.95 0 9.9 0 15 0 C15 4.95 15 9.9 15 15 C10.05 15 5.1 15 0 15 C0 10.05 0 5.1 0 0 Z " fill="#EFEFEF" transform="translate(315,30)"/>
<path d="M0 0 C4.95 0 9.9 0 15 0 C15 4.95 15 9.9 15 15 C10.05 15 5.1 15 0 15 C0 10.05 0 5.1 0 0 Z " fill="#FFFFFF" transform="translate(300,30)"/>
<path d="M0 0 C4.95 0 9.9 0 15 0 C15 4.95 15 9.9 15 15 C10.05 15 5.1 15 0 15 C0 10.05 0 5.1 0 0 Z " fill="#EFEFEF" transform="translate(285,30)"/>
<path d="M0 0 C4.95 0 9.9 0 15 0 C15 4.95 15 9.9 15 15 C10.05 15 5.1 15 0 15 C0 10.05 0 5.1 0 0 Z " fill="#EFEFEF" transform="translate(165,30)"/>
<path d="M0 0 C4.95 0 9.9 0 15 0 C15 4.95 15 9.9 15 15 C10.05 15 5.1 15 0 15 C0 10.05 0 5.1 0 0 Z " fill="#FFFFFF" transform="translate(60,30)"/>
<path d="M0 0 C4.95 0 9.9 0 15 0 C15 4.95 15 9.9 15 15 C10.05 15 5.1 15 0 15 C0 10.05 0 5.1 0 0 Z " fill="#EFEFEF" transform="translate(45,30)"/>
<path d="M0 0 C4.95 0 9.9 0 15 0 C15 4.95 15 9.9 15 15 C10.05 15 5.1 15 0 15 C0 10.05 0 5.1 0 0 Z " fill="#FFFFFF" transform="translate(30,30)"/>
<path d="M0 0 C4.95 0 9.9 0 15 0 C15 4.95 15 9.9 15 15 C10.05 15 5.1 15 0 15 C0 10.05 0 5.1 0 0 Z " fill="#EFEFEF" transform="translate(15,30)"/>
<path d="M0 0 C4.95 0 9.9 0 15 0 C15 4.95 15 9.9 15 15 C10.05 15 5.1 15 0 15 C0 10.05 0 5.1 0 0 Z " fill="#FFFFFF" transform="translate(0,30)"/>
<path d="M0 0 C4.95 0 9.9 0 15 0 C15 4.95 15 9.9 15 15 C10.05 15 5.1 15 0 15 C0 10.05 0 5.1 0 0 Z " fill="#EFEFEF" transform="translate(330,15)"/>
<path d="M0 0 C4.95 0 9.9 0 15 0 C15 4.95 15 9.9 15 15 C10.05 15 5.1 15 0 15 C0 10.05 0 5.1 0 0 Z " fill="#FFFFFF" transform="translate(315,15)"/>
<path d="M0 0 C4.95 0 9.9 0 15 0 C15 4.95 15 9.9 15 15 C10.05 15 5.1 15 0 15 C0 10.05 0 5.1 0 0 Z " fill="#EFEFEF" transform="translate(300,15)"/>
<path d="M0 0 C4.95 0 9.9 0 15 0 C15 4.95 15 9.9 15 15 C10.05 15 5.1 15 0 15 C0 10.05 0 5.1 0 0 Z " fill="#FFFFFF" transform="translate(285,15)"/>
<path d="M0 0 C4.95 0 9.9 0 15 0 C15 4.95 15 9.9 15 15 C10.05 15 5.1 15 0 15 C0 10.05 0 5.1 0 0 Z " fill="#EFEFEF" transform="translate(270,15)"/>
<path d="M0 0 C4.95 0 9.9 0 15 0 C15 4.95 15 9.9 15 15 C10.05 15 5.1 15 0 15 C0 10.05 0 5.1 0 0 Z " fill="#EFEFEF" transform="translate(60,15)"/>
<path d="M0 0 C4.95 0 9.9 0 15 0 C15 4.95 15 9.9 15 15 C10.05 15 5.1 15 0 15 C0 10.05 0 5.1 0 0 Z " fill="#FFFFFF" transform="translate(45,15)"/>
<path d="M0 0 C4.95 0 9.9 0 15 0 C15 4.95 15 9.9 15 15 C10.05 15 5.1 15 0 15 C0 10.05 0 5.1 0 0 Z " fill="#EFEFEF" transform="translate(30,15)"/>
<path d="M0 0 C4.95 0 9.9 0 15 0 C15 4.95 15 9.9 15 15 C10.05 15 5.1 15 0 15 C0 10.05 0 5.1 0 0 Z " fill="#FFFFFF" transform="translate(15,15)"/>
<path d="M0 0 C4.95 0 9.9 0 15 0 C15 4.95 15 9.9 15 15 C10.05 15 5.1 15 0 15 C0 10.05 0 5.1 0 0 Z " fill="#EFEFEF" transform="translate(0,15)"/>
<path d="M0 0 C4.95 0 9.9 0 15 0 C15 4.95 15 9.9 15 15 C10.05 15 5.1 15 0 15 C0 10.05 0 5.1 0 0 Z " fill="#EFEFEF" transform="translate(315,0)"/>
<path d="M0 0 C4.95 0 9.9 0 15 0 C15 4.95 15 9.9 15 15 C10.05 15 5.1 15 0 15 C0 10.05 0 5.1 0 0 Z " fill="#FFFFFF" transform="translate(300,0)"/>
<path d="M0 0 C4.95 0 9.9 0 15 0 C15 4.95 15 9.9 15 15 C10.05 15 5.1 15 0 15 C0 10.05 0 5.1 0 0 Z " fill="#EFEFEF" transform="translate(285,0)"/>
<path d="M0 0 C4.95 0 9.9 0 15 0 C15 4.95 15 9.9 15 15 C10.05 15 5.1 15 0 15 C0 10.05 0 5.1 0 0 Z " fill="#FFFFFF" transform="translate(270,0)"/>
<path d="M0 0 C4.95 0 9.9 0 15 0 C15 4.95 15 9.9 15 15 C10.05 15 5.1 15 0 15 C0 10.05 0 5.1 0 0 Z " fill="#EFEFEF" transform="translate(255,0)"/>
<path d="M0 0 C4.95 0 9.9 0 15 0 C15 4.95 15 9.9 15 15 C10.05 15 5.1 15 0 15 C0 10.05 0 5.1 0 0 Z " fill="#FFFFFF" transform="translate(210,0)"/>
<path d="M0 0 C4.95 0 9.9 0 15 0 C15 4.95 15 9.9 15 15 C10.05 15 5.1 15 0 15 C0 10.05 0 5.1 0 0 Z " fill="#FFFFFF" transform="translate(120,0)"/>
<path d="M0 0 C4.95 0 9.9 0 15 0 C15 4.95 15 9.9 15 15 C10.05 15 5.1 15 0 15 C0 10.05 0 5.1 0 0 Z " fill="#EFEFEF" transform="translate(75,0)"/>
<path d="M0 0 C4.95 0 9.9 0 15 0 C15 4.95 15 9.9 15 15 C10.05 15 5.1 15 0 15 C0 10.05 0 5.1 0 0 Z " fill="#FFFFFF" transform="translate(60,0)"/>
<path d="M0 0 C4.95 0 9.9 0 15 0 C15 4.95 15 9.9 15 15 C10.05 15 5.1 15 0 15 C0 10.05 0 5.1 0 0 Z " fill="#EFEFEF" transform="translate(45,0)"/>
<path d="M0 0 C4.95 0 9.9 0 15 0 C15 4.95 15 9.9 15 15 C10.05 15 5.1 15 0 15 C0 10.05 0 5.1 0 0 Z " fill="#FFFFFF" transform="translate(30,0)"/>
<path d="M0 0 C4.95 0 9.9 0 15 0 C15 4.95 15 9.9 15 15 C10.05 15 5.1 15 0 15 C0 10.05 0 5.1 0 0 Z " fill="#FFFFFF" transform="translate(0,0)"/>
<path d="M0 0 C4.62 0 9.24 0 14 0 C16.13079691 4.26159382 15.04502317 10.40763702 15 15 C10.05 15 5.1 15 0 15 C0 10.05 0 5.1 0 0 Z " fill="#EFEFEE" transform="translate(75,330)"/>
<path d="M0 0 C4.98046875 0.09765625 4.98046875 0.09765625 9.9609375 0.1953125 C9.9609375 5.1453125 9.9609375 10.0953125 9.9609375 15.1953125 C5.0109375 15.1953125 0.0609375 15.1953125 -5.0390625 15.1953125 C-5.234375 5.234375 -5.234375 5.234375 -5.0390625 2.1953125 C-3.0390625 0.1953125 -3.0390625 0.1953125 0 0 Z " fill="#FFFFFF" transform="translate(95.0390625,59.8046875)"/>
<path d="M0 0 C4.95 0 9.9 0 15 0 C15 4.95 15 9.9 15 15 C11.04 15 7.08 15 3 15 C0.22672299 10.96614253 -1.41258739 8.51865367 -0.75 3.5625 C-0.5025 2.386875 -0.255 1.21125 0 0 Z " fill="#FEFEFE" transform="translate(45,225)"/>
<path d="M0 0 C4.95 0 9.9 0 15 0 C15 4.95 15 9.9 15 15 C11.37 15.33 7.74 15.66 4 16 C-0.49777059 10.65889743 -0.37351948 6.91011034 0 0 Z " fill="#EFEEEE" transform="translate(210,135)"/>
<path d="M0 0 C4.95 0 9.9 0 15 0 C14.67 4.95 14.34 9.9 14 15 C9.38 15 4.76 15 0 15 C0 10.05 0 5.1 0 0 Z " fill="#EFEFEF" transform="translate(285,240)"/>
<path d="M0 0 C3.39278738 1.35711495 6.4896199 2.67018786 9.6875 4.375 C10.45449219 4.77460938 11.22148437 5.17421875 12.01171875 5.5859375 C14.39727963 7.28254465 15.17340602 8.18668014 16 11 C15.67 13.31 15.34 15.62 15 18 C10.05 18 5.1 18 0 18 C0 12.06 0 6.12 0 0 Z " fill="#F0EFEF" transform="translate(15,237)"/>
<path d="M0 0 C2.81256281 -0.02684312 5.62487241 -0.04676188 8.4375 -0.0625 C9.23994141 -0.07087891 10.04238281 -0.07925781 10.86914062 -0.08789062 C12.91295221 -0.0965143 14.95683902 -0.0522815 17 0 C18 1 18 1 18.09765625 3.94140625 C18.06510417 7.29427083 18.03255208 10.64713542 18 14 C13.05 14 8.1 14 3 14 C3.09765625 10.94010417 3.1953125 7.88020833 3.29296875 4.8203125 C3.14794922 3.42425781 3.14794922 3.42425781 3 2 C2.01 1.34 1.02 0.68 0 0 Z " fill="#EFEEEE" transform="translate(162,91)"/>
<path d="M0 0 C4.95 0 9.9 0 15 0 C15 4.95 15 9.9 15 15 C13.63875 14.855625 12.2775 14.71125 10.875 14.5625 C10.10929688 14.48128906 9.34359375 14.40007812 8.5546875 14.31640625 C5.69143782 13.96178358 2.84587143 13.4743119 0 13 C0 8.71 0 4.42 0 0 Z " fill="#FEFEFE" transform="translate(210,300)"/>
<path d="M0 0 C0 4.95 0 9.9 0 15 C-4.95 15 -9.9 15 -15 15 C-15.33 11.7 -15.66 8.4 -16 5 C-10.38792026 0.22376192 -7.34066345 -0.56466642 0 0 Z " fill="#EFEFEE" transform="translate(270,330)"/>
<path d="M0 0 C4.95 0 9.9 0 15 0 C14.34 4.95 13.68 9.9 13 15 C8.71 15 4.42 15 0 15 C0 10.05 0 5.1 0 0 Z " fill="#FEFEFE" transform="translate(15,75)"/>
<path d="M0 0 C6.05503233 -0.22018299 11.11840613 0.52960153 17 2 C16.67 5.96 16.34 9.92 16 14 C11.05 14 6.1 14 1 14 C0.67 9.38 0.34 4.76 0 0 Z " fill="#FEFEFD" transform="translate(179,91)"/>
<path d="M0 0 C10.05859375 -0.09765625 10.05859375 -0.09765625 13 0 C13.33 0.33 13.66 0.66 14 1 C13.90968426 3.35694954 13.75311872 5.71153582 13.5625 8.0625 C13.46066406 9.35285156 13.35882813 10.64320312 13.25390625 11.97265625 C13.17011719 12.97167969 13.08632813 13.97070312 13 15 C8.71 15 4.42 15 0 15 C0 10.05 0 5.1 0 0 Z " fill="#EFEFEF" transform="translate(285,90)"/>
<path d="M0 0 C4.62 0 9.24 0 14 0 C14 4.95 14 9.9 14 15 C10.37 15.33 6.74 15.66 3 16 C2.29954544 14.08802961 1.615081 12.17019565 0.9375 10.25 C0.55464844 9.18265625 0.17179687 8.1153125 -0.22265625 7.015625 C-1 4 -1 4 0 0 Z " fill="#EFEEED" transform="translate(91,195)"/>
<path d="M0 0 C4.95 0 9.9 0 15 0 C15 4.62 15 9.24 15 14 C2.25 13.125 2.25 13.125 0 12 C0 8.04 0 4.08 0 0 Z " fill="#FEFDFB" transform="translate(180,60)"/>
<path d="M0 0 C0.66 0.99 1.32 1.98 2 3 C2.515625 3.763125 3.03125 4.52625 3.5625 5.3125 C5.15065713 8.28166333 5.70292154 10.65786728 6 14 C5.67 14.66 5.34 15.32 5 16 C0.38 16 -4.24 16 -9 16 C-9 11.05 -9 6.1 -9 1 C-4.545 0.505 -4.545 0.505 0 0 Z " fill="#EFEEED" transform="translate(249,134)"/>
<path d="M0 0 C0.33 0 0.66 0 1 0 C1.20496094 1.03640625 1.40992187 2.0728125 1.62109375 3.140625 C1.89317769 4.51042689 2.16531596 5.88021799 2.4375 7.25 C2.57220703 7.93191406 2.70691406 8.61382812 2.84570312 9.31640625 C3.49309543 12.56915786 4.19531532 15.78126126 5 19 C0.05 18.67 -4.9 18.34 -10 18 C-10 13.05 -10 8.1 -10 3 C-6.7 3 -3.4 3 0 3 C0 2.01 0 1.02 0 0 Z " fill="#EFEEED" transform="translate(70,192)"/>
<path d="M0 0 C0.66 0.33 1.32 0.66 2 1 C1.67 5.95 1.34 10.9 1 16 C-3.95 16 -8.9 16 -14 16 C-14 13.03 -14 10.06 -14 7 C-11.71296692 5.80274117 -9.42115138 4.61702982 -7.125 3.4375 C-6.14853516 2.92413086 -6.14853516 2.92413086 -5.15234375 2.40039062 C-3.46470143 1.53917109 -1.73420407 0.76313297 0 0 Z " fill="#FEFEFD" transform="translate(224,269)"/>
<path d="M0 0 C-0.33 4.29 -0.66 8.58 -1 13 C-5.95 13 -10.9 13 -16 13 C-16 9.37 -16 5.74 -16 2 C-10.42932723 0.40837921 -5.78898419 -0.20674944 0 0 Z " fill="#FEFEFE" transform="translate(166,92)"/>
<path d="M0 0 C4.95 0 9.9 0 15 0 C15 4.95 15 9.9 15 15 C11.37 15 7.74 15 4 15 C3.896875 14.01 3.79375 13.02 3.6875 12 C3.09191294 7.71702837 1.61404973 4.00003629 0 0 Z " fill="#EFEFEE" transform="translate(30,165)"/>
<path d="M0 0 C4.95 0 9.9 0 15 0 C15 3.96 15 7.92 15 12 C10.05 12.33 5.1 12.66 0 13 C0 8.71 0 4.42 0 0 Z " fill="#EFEFEF" transform="translate(165,60)"/>
<path d="M0 0 C2.57161458 0.03255208 5.14322917 0.06510417 7.71484375 0.09765625 C7.71484375 5.04765625 7.71484375 9.99765625 7.71484375 15.09765625 C3.09484375 15.09765625 -1.52515625 15.09765625 -6.28515625 15.09765625 C-5.63422124 11.84298118 -4.9820149 8.59240433 -4.28515625 5.34765625 C-4.12015625 4.5690625 -3.95515625 3.79046875 -3.78515625 2.98828125 C-3.06339524 0.25912241 -2.87384514 0.12281389 0 0 Z " fill="#FEFEFE" transform="translate(52.28515625,104.90234375)"/>
<path d="M0 0 C3.3 0 6.6 0 10 0 C11.66666667 5 13.33333333 10 15 15 C10.05 15 5.1 15 0 15 C0 10.05 0 5.1 0 0 Z " fill="#EFEEED" transform="translate(240,45)"/>
<path d="M0 0 C4.95 0 9.9 0 15 0 C15 3.63 15 7.26 15 11 C7.5 12.5 7.5 12.5 0 14 C0 9.38 0 4.76 0 0 Z " fill="#FEFEFE" transform="translate(45,45)"/>
<path d="M0 0 C4.29 0 8.58 0 13 0 C13 4.95 13 9.9 13 15 C9.7 15 6.4 15 3 15 C2.30151736 13.06643218 1.61655186 11.12797702 0.9375 9.1875 C0.55464844 8.10855469 0.17179687 7.02960938 -0.22265625 5.91796875 C-1 3 -1 3 0 0 Z " fill="#EFEEED" transform="translate(272,135)"/>
<path d="M0 0 C2.97 0 5.94 0 9 0 C9 4.95 9 9.9 9 15 C4.05 15 -0.9 15 -6 15 C-5.01 13.02 -4.02 11.04 -3 9 C-2.40107208 7.38807054 -1.83388963 5.76365314 -1.3125 4.125 C-0.879375 2.76375 -0.44625 1.4025 0 0 Z " fill="#EFEFEE" transform="translate(321,270)"/>
<path d="M0 0 C4.29 0 8.58 0 13 0 C12.113125 0.94875 11.22625 1.8975 10.3125 2.875 C3.41925703 11.11086986 1.05568071 18.50247191 1.5625 29.203125 C2.12952734 34.12411225 3.56794066 37.75122163 6 42 C6.33 42.99 6.66 43.98 7 45 C4.69 45 2.38 45 0 45 C0 30.15 0 15.3 0 0 Z " fill="#FDFDFC" transform="translate(0,120)"/>
<path d="M0 0 C3.96 0 7.92 0 12 0 C12 4.95 12 9.9 12 15 C6.06 15.495 6.06 15.495 0 16 C0 10.72 0 5.44 0 0 Z " fill="#FFFFFF" transform="translate(318,75)"/>
<path d="M0 0 C0 4.95 0 9.9 0 15 C-4.29 15 -8.58 15 -13 15 C-13.66964286 7.23214286 -13.66964286 7.23214286 -10.6875 3.5625 C-6.8584358 -0.08846819 -5.39182592 0 0 0 Z " fill="#FEFEFD" transform="translate(60,75)"/>
<path d="M0 0 C4.95 0 9.9 0 15 0 C15 3.96 15 7.92 15 12 C10.05 11.67 5.1 11.34 0 11 C0 7.37 0 3.74 0 0 Z " fill="#FFFFFF" transform="translate(60,270)"/>
<path d="M0 0 C3.3 0 6.6 0 10 0 C10 4.95 10 9.9 10 15 C5.05 15 0.1 15 -5 15 C-4.360625 14.01 -3.72125 13.02 -3.0625 12 C-0.74593674 7.99717514 -0.32145895 4.58078998 0 0 Z " fill="#FEFEFD" transform="translate(215,150)"/>
<path d="M0 0 C0.33 0.66 0.66 1.32 1 2 C4.63 2 8.26 2 12 2 C12 6.95 12 11.9 12 17 C7.05 17.495 7.05 17.495 2 18 C1.34 12.06 0.68 6.12 0 0 Z " fill="#FEFEFE" transform="translate(318,253)"/>
<path d="M0 0 C4.62 0 9.24 0 14 0 C13.08591075 4.57044627 12.31735861 6.58009478 9.8125 10.3125 C9.24144531 11.19550781 8.67039062 12.07851562 8.08203125 12.98828125 C6 15 6 15 0 15 C0 10.05 0 5.1 0 0 Z " fill="#FEFDFC" transform="translate(0,180)"/>
<path d="M0 0 C3.96 0 7.92 0 12 0 C12 4.95 12 9.9 12 15 C9.98177083 14.90234375 7.96354167 14.8046875 5.9453125 14.70703125 C5.30335937 14.80371094 4.66140625 14.90039062 4 15 C3.01 16.485 3.01 16.485 2 18 C1.93941406 17.03578125 1.87882812 16.0715625 1.81640625 15.078125 C1.73261719 13.81484375 1.64882813 12.5515625 1.5625 11.25 C1.48128906 9.99703125 1.40007813 8.7440625 1.31640625 7.453125 C1.07746574 3.87635863 1.07746574 3.87635863 0 0 Z " fill="#F0ECE7" transform="translate(48,240)"/>
<path d="M0 0 C4.95 0 9.9 0 15 0 C14 6 14 6 11.875 8.125 C2.86666667 14 2.86666667 14 0 14 C0 9.38 0 4.76 0 0 Z " fill="#FEFDFD" transform="translate(15,105)"/>
<path d="M0 0 C4.95 0 9.9 0 15 0 C15 3.3 15 6.6 15 10 C10.05 10 5.1 10 0 10 C0 6.7 0 3.4 0 0 Z " fill="#EFEFEF" transform="translate(330,345)"/>
<path d="M0 0 C4.95 0 9.9 0 15 0 C15 3.3 15 6.6 15 10 C10.05 10 5.1 10 0 10 C0 6.7 0 3.4 0 0 Z " fill="#FFFFFF" transform="translate(315,345)"/>
<path d="M0 0 C4.95 0 9.9 0 15 0 C15 3.3 15 6.6 15 10 C10.05 10 5.1 10 0 10 C0 6.7 0 3.4 0 0 Z " fill="#EFEFEF" transform="translate(300,345)"/>
<path d="M0 0 C4.95 0 9.9 0 15 0 C15 3.3 15 6.6 15 10 C10.05 10 5.1 10 0 10 C0 6.7 0 3.4 0 0 Z " fill="#FFFFFF" transform="translate(285,345)"/>
<path d="M0 0 C4.95 0 9.9 0 15 0 C15 3.3 15 6.6 15 10 C10.05 10 5.1 10 0 10 C0 6.7 0 3.4 0 0 Z " fill="#EFEFEF" transform="translate(270,345)"/>
<path d="M0 0 C4.95 0 9.9 0 15 0 C15 3.3 15 6.6 15 10 C10.05 10 5.1 10 0 10 C0 6.7 0 3.4 0 0 Z " fill="#FFFFFF" transform="translate(255,345)"/>
<path d="M0 0 C4.95 0 9.9 0 15 0 C15 3.3 15 6.6 15 10 C10.05 10 5.1 10 0 10 C0 6.7 0 3.4 0 0 Z " fill="#EFEFEF" transform="translate(240,345)"/>
<path d="M0 0 C4.95 0 9.9 0 15 0 C15 3.3 15 6.6 15 10 C10.05 10 5.1 10 0 10 C0 6.7 0 3.4 0 0 Z " fill="#FFFFFF" transform="translate(225,345)"/>
<path d="M0 0 C4.95 0 9.9 0 15 0 C15 3.3 15 6.6 15 10 C10.05 10 5.1 10 0 10 C0 6.7 0 3.4 0 0 Z " fill="#EFEFEF" transform="translate(210,345)"/>
<path d="M0 0 C4.95 0 9.9 0 15 0 C15 3.3 15 6.6 15 10 C10.05 10 5.1 10 0 10 C0 6.7 0 3.4 0 0 Z " fill="#FFFFFF" transform="translate(135,345)"/>
<path d="M0 0 C4.95 0 9.9 0 15 0 C15 3.3 15 6.6 15 10 C10.05 10 5.1 10 0 10 C0 6.7 0 3.4 0 0 Z " fill="#EFEFEF" transform="translate(120,345)"/>
<path d="M0 0 C4.95 0 9.9 0 15 0 C15 3.3 15 6.6 15 10 C10.05 10 5.1 10 0 10 C0 6.7 0 3.4 0 0 Z " fill="#EFEFEF" transform="translate(90,345)"/>
<path d="M0 0 C4.95 0 9.9 0 15 0 C15 3.3 15 6.6 15 10 C10.05 10 5.1 10 0 10 C0 6.7 0 3.4 0 0 Z " fill="#FFFFFF" transform="translate(75,345)"/>
<path d="M0 0 C4.95 0 9.9 0 15 0 C15 3.3 15 6.6 15 10 C10.05 10 5.1 10 0 10 C0 6.7 0 3.4 0 0 Z " fill="#EFEFEF" transform="translate(60,345)"/>
<path d="M0 0 C4.95 0 9.9 0 15 0 C15 3.3 15 6.6 15 10 C10.05 10 5.1 10 0 10 C0 6.7 0 3.4 0 0 Z " fill="#FFFFFF" transform="translate(45,345)"/>
<path d="M0 0 C4.95 0 9.9 0 15 0 C15 3.3 15 6.6 15 10 C10.05 10 5.1 10 0 10 C0 6.7 0 3.4 0 0 Z " fill="#EFEFEF" transform="translate(30,345)"/>
<path d="M0 0 C4.95 0 9.9 0 15 0 C15 3.3 15 6.6 15 10 C10.05 10 5.1 10 0 10 C0 6.7 0 3.4 0 0 Z " fill="#FFFFFF" transform="translate(15,345)"/>
<path d="M0 0 C4.95 0 9.9 0 15 0 C15 3.3 15 6.6 15 10 C10.05 10 5.1 10 0 10 C0 6.7 0 3.4 0 0 Z " fill="#EFEFEF" transform="translate(0,345)"/>
<path d="M0 0 C2.64 0 5.28 0 8 0 C8 4.95 8 9.9 8 15 C3.71 15 -0.58 15 -5 15 C-3.35 10.05 -1.7 5.1 0 0 Z " fill="#EFEEEC" transform="translate(97,45)"/>
<path d="M0 0 C1.07765625 0.12890625 2.1553125 0.2578125 3.265625 0.390625 C4.49539062 0.56851562 4.49539062 0.56851562 5.75 0.75 C5.75 4.05 5.75 7.35 5.75 10.75 C0.8 10.75 -4.15 10.75 -9.25 10.75 C-10.25 3.75 -10.25 3.75 -8.703125 1.296875 C-5.49020282 -0.72910777 -3.7294591 -0.48645119 0 0 Z " fill="#FEFEFE" transform="translate(204.25,344.25)"/>
<path d="M0 0 C0 4.95 0 9.9 0 15 C-3.63 15 -7.26 15 -11 15 C-11.49046322 6.78474114 -11.49046322 6.78474114 -9.125 3 C-5.66901406 -0.25269265 -5.14894966 0 0 0 Z " fill="#EFEFEE" transform="translate(345,165)"/>
<path d="M0 0 C2.97 0 5.94 0 9 0 C9.84681133 5.08086796 10.09038099 9.84828377 10 15 C6.7 15 3.4 15 0 15 C0 10.05 0 5.1 0 0 Z " fill="#FFFFFF" transform="translate(60,180)"/>
<path d="M0 0 C2.64 0.33 5.28 0.66 8 1 C8 5.95 8 10.9 8 16 C4.7 16 1.4 16 -2 16 C-1.42371425 10.64877519 -0.79283202 5.32330072 0 0 Z " fill="#EFEEED" transform="translate(277,194)"/>
<path d="M0 0 C2.97 0 5.94 0 9 0 C10.14229879 3.42689636 9.90861076 5.61102218 9.5625 9.1875 C9.46066406 10.27417969 9.35882813 11.36085937 9.25390625 12.48046875 C9.17011719 13.31191406 9.08632812 14.14335937 9 15 C6.03 15 3.06 15 0 15 C0 10.05 0 5.1 0 0 Z " fill="#EFEFEF" transform="translate(60,165)"/>
<path d="M0 0 C0.75 1.5625 0.75 1.5625 1 4 C-1.45096686 10.41919892 -4.78680953 12.38106613 -10.953125 15.15234375 C-11.62859375 15.43207031 -12.3040625 15.71179688 -13 16 C-14 15 -14 15 -14.09765625 12.27734375 C-14.06510417 9.18489583 -14.03255208 6.09244792 -14 3 C-9.38 3 -4.76 3 0 3 C0 2.01 0 1.02 0 0 Z " fill="#F0EEEB" transform="translate(329,207)"/>
<path d="M0 0 C4.95 0 9.9 0 15 0 C15.09765625 6.15234375 15.09765625 6.15234375 15 8 C14 9 14 9 11.85546875 9.1328125 C10.97503906 9.13023437 10.09460938 9.12765625 9.1875 9.125 C8.31480469 9.12757813 7.44210938 9.13015625 6.54296875 9.1328125 C4.21345785 9.01114834 2.23061985 8.65514709 0 8 C0 5.36 0 2.72 0 0 Z " fill="#FDFDFD" transform="translate(165,255)"/>
<path d="M0 0 C4.95 0 9.9 0 15 0 C15.33 0.99 15.66 1.98 16 3 C14.41291355 5.95775201 13.04656885 7.63040091 9.83203125 8.765625 C6.4877039 9.52941918 3.43650614 10 0 10 C0 6.7 0 3.4 0 0 Z " fill="#F0EFEE" transform="translate(285,270)"/>
<path d="M0 0 C0.99 0.886875 1.98 1.77375 3 2.6875 C6.27593855 5.53468586 9.67571715 7.68226231 13.49609375 9.7265625 C13.99238281 10.14679688 14.48867188 10.56703125 15 11 C15 12.32 15 13.64 15 15 C10.05 15 5.1 15 0 15 C0 10.05 0 5.1 0 0 Z " fill="#EFEFEF" transform="translate(255,60)"/>
<path d="M0 0 C0 4.95 0 9.9 0 15 C-4.95 15 -9.9 15 -15 15 C-2.5 0 -2.5 0 0 0 Z " fill="#FFFFFF" transform="translate(210,165)"/>
<path d="M0 0 C1.39456452 0.00667256 2.78911118 0.01863093 4.18359375 0.03515625 C4.89451172 0.03966797 5.60542969 0.04417969 6.33789062 0.04882812 C8.09899388 0.06064761 9.86005411 0.07858362 11.62109375 0.09765625 C11.62109375 3.06765625 11.62109375 6.03765625 11.62109375 9.09765625 C5.56347581 9.515423 2.43084278 9.22029828 -2.37890625 5.09765625 C-3.75390625 2.84765625 -3.75390625 2.84765625 -4.37890625 1.09765625 C-3.37890625 0.09765625 -3.37890625 0.09765625 0 0 Z " fill="#F0EFED" transform="translate(273.37890625,44.90234375)"/>
<path d="M0 0 C1.93786085 0.47770523 3.87527674 0.95721571 5.8125 1.4375 C7.43091797 1.83775391 7.43091797 1.83775391 9.08203125 2.24609375 C11.0740843 2.76077412 13.04811524 3.34937175 15 4 C15 5.98 15 7.96 15 10 C10.05 10 5.1 10 0 10 C0 6.7 0 3.4 0 0 Z " fill="#F0EFED" transform="translate(135,275)"/>
<path d="M0 0 C0.33 0 0.66 0 1 0 C1 4.62 1 9.24 1 14 C-3.95 14 -8.9 14 -14 14 C-11.70142652 8.25356629 -11.19055541 8.44261431 -6 6 C-3.22847788 3.47943955 -3.22847788 3.47943955 -1 1 C-0.67 0.67 -0.34 0.34 0 0 Z " fill="#F0EFEF" transform="translate(314,286)"/>
<path d="M0 0 C4.95 0 9.9 0 15 0 C15 2.97 15 5.94 15 9 C14.13375 8.649375 13.2675 8.29875 12.375 7.9375 C7.71317225 6.64254785 4.50652245 7.49782585 0 9 C0 6.03 0 3.06 0 0 Z " fill="#FEFEFD" transform="translate(135,165)"/>
<path d="M0 0 C0 2.97 0 5.94 0 9 C-4.95 9 -9.9 9 -15 9 C-15 7.68 -15 6.36 -15 5 C-15.99 4.67 -16.98 4.34 -18 4 C-15.37569876 3.3304744 -12.75063343 2.66426282 -10.125 2 C-9.00544922 1.71382813 -9.00544922 1.71382813 -7.86328125 1.421875 C-2.2265625 0 -2.2265625 0 0 0 Z " fill="#F0EEEC" transform="translate(210,276)"/>
<path d="M0 0 C0 2.97 0 5.94 0 9 C-4.95 9 -9.9 9 -15 9 C-15 7.02 -15 5.04 -15 3 C-14.31292969 2.86722656 -13.62585938 2.73445313 -12.91796875 2.59765625 C-11.56638672 2.33275391 -11.56638672 2.33275391 -10.1875 2.0625 C-8.84751953 1.80146484 -8.84751953 1.80146484 -7.48046875 1.53515625 C-0.3649635 0 -0.3649635 0 0 0 Z " fill="#FEFDFB" transform="translate(255,336)"/>
<path d="M0 0 C3.96 0.33 7.92 0.66 12 1 C12 4.63 12 8.26 12 12 C7.93301428 11.76536621 5.67437958 11.62113909 2.625 8.8125 C0.87913759 5.79081505 0.32132011 3.45419117 0 0 Z " fill="#F0EFED" transform="translate(48,269)"/>
<path d="M0 0 C3.63 0 7.26 0 11 0 C11 4.29 11 8.58 11 13 C3.05886288 10.00334448 3.05886288 10.00334448 1 6 C0.3125 2.75 0.3125 2.75 0 0 Z " fill="#EFEFEE" transform="translate(19,210)"/>
<path d="M0 0 C2.12570312 0.47603774 4.25054427 0.95592598 6.375 1.4375 C8.15003906 1.83775391 8.15003906 1.83775391 9.9609375 2.24609375 C13 3 13 3 15 4 C15 5.65 15 7.3 15 9 C10.05 9 5.1 9 0 9 C0 6.03 0 3.06 0 0 Z " fill="#EFEEEC" transform="translate(195,36)"/>
<path d="M0 0 C0.804375 0.309375 1.60875 0.61875 2.4375 0.9375 C6.62249087 2.18565517 10.66306101 2.6337696 15 3 C15 4.98 15 6.96 15 9 C10.05 9 5.1 9 0 9 C0 6.03 0 3.06 0 0 Z " fill="#F0EEEB" transform="translate(225,336)"/>
<path d="M0 0 C4.92620575 3.84484351 9.12162575 8.08892255 13 13 C13 13.33 13 13.66 13 14 C8.71 14 4.42 14 0 14 C0 9.38 0 4.76 0 0 Z " fill="#FEFDFC" transform="translate(90,241)"/>
<path d="M0 0 C0 2.64 0 5.28 0 8 C-4.95 8 -9.9 8 -15 8 C-15 6.35 -15 4.7 -15 3 C-13.0636296 2.49564306 -11.12585854 1.99666126 -9.1875 1.5 C-8.10855469 1.2215625 -7.02960938 0.943125 -5.91796875 0.65625 C-3 0 -3 0 0 0 Z " fill="#FEFCF8" transform="translate(225,37)"/>
<path d="M0 0 C1.65 0 3.3 0 5 0 C5 4.95 5 9.9 5 15 C2.69 15 0.38 15 -2 15 C-1.85930804 12.87465341 -1.71229079 10.74972471 -1.5625 8.625 C-1.48128906 7.44164062 -1.40007812 6.25828125 -1.31640625 5.0390625 C-1 2 -1 2 0 0 Z " fill="#FFFFFF" transform="translate(280,180)"/>
<path d="M0 0 C0.33 0.66 0.66 1.32 1 2 C4.96 2 8.92 2 13 2 C13 5.3 13 8.6 13 12 C7.50149633 10.33766168 3.25712426 8.88568639 0 4 C0 2.68 0 1.36 0 0 Z " fill="#FEFDFC" transform="translate(317,103)"/>
<path d="M0 0 C3.81627222 1.90813611 5.8073828 3.56699263 8.75 6.5625 C9.54921875 7.36816406 10.3484375 8.17382812 11.171875 9.00390625 C13 11 13 11 13 12 C8.71 12 4.42 12 0 12 C0 8.04 0 4.08 0 0 Z " fill="#FEFEFD" transform="translate(225,108)"/>
<path d="M0 0 C0 2.64 0 5.28 0 8 C-4.95 8 -9.9 8 -15 8 C-15 6.35 -15 4.7 -15 3 C-14.22914063 2.86722656 -13.45828125 2.73445313 -12.6640625 2.59765625 C-11.66117188 2.42105469 -10.65828125 2.24445312 -9.625 2.0625 C-8.62726563 1.88847656 -7.62953125 1.71445312 -6.6015625 1.53515625 C-4.17911891 1.03684578 -2.44449381 0 0 0 Z " fill="#F0EFEE" transform="translate(150,37)"/>
<path d="M0 0 C4.95 0.99 9.9 1.98 15 3 C15 4.65 15 6.3 15 8 C10.05 8 5.1 8 0 8 C0 5.36 0 2.72 0 0 Z " fill="#FEFDFC" transform="translate(120,37)"/>
<path d="M0 0 C1.65 0 3.3 0 5 0 C5 4.95 5 9.9 5 15 C3.35 15 1.7 15 0 15 C-0.33 15.66 -0.66 16.32 -1 17 C-1.10477512 11.21408489 -0.99250545 5.70690634 0 0 Z " fill="#EFEEEC" transform="translate(280,165)"/>
<path d="M0 0 C0.66 0.33 1.32 0.66 2 1 C2 4.63 2 8.26 2 12 C-1.63 12 -5.26 12 -9 12 C-7.29638905 8.5927781 -5.86767864 6.51964294 -3.375 3.75 C-2.74335938 3.04359375 -2.11171875 2.3371875 -1.4609375 1.609375 C-0.97882813 1.07828125 -0.49671875 0.5471875 0 0 Z " fill="#EFEEED" transform="translate(208,333)"/>
<path d="M0 0 C6.06896552 2.42758621 6.06896552 2.42758621 8 6 C8.6875 9.75 8.6875 9.75 9 13 C6.03 12.67 3.06 12.34 0 12 C0 8.04 0 4.08 0 0 Z " fill="#FEFCFA" transform="translate(240,33)"/>
<path d="M0 0 C3.3 0 6.6 0 10 0 C10 4.62 10 9.24 10 14 C6.07511907 10.29939798 2.97784457 6.5093075 0 2 C0 1.34 0 0.68 0 0 Z " fill="#FEFDFB" transform="translate(335,180)"/>
<path d="M0 0 C0 3.3 0 6.6 0 10 C-4.29 10 -8.58 10 -13 10 C-10.98028865 5.9605773 -10.11931698 5.07670377 -6.5 2.75 C-5.30890625 1.96882813 -5.30890625 1.96882813 -4.09375 1.171875 C-2 0 -2 0 0 0 Z " fill="#FEFDFB" transform="translate(240,260)"/>
<path d="M0 0 C3.96 0 7.92 0 12 0 C11.29875 0.639375 10.5975 1.27875 9.875 1.9375 C6.77748056 4.99961922 4.55509759 8.5405288 2.234375 12.20703125 C1.62335937 13.09455078 1.62335937 13.09455078 1 14 C0.67 14 0.34 14 0 14 C0 9.38 0 4.76 0 0 Z " fill="#FEFDFC" transform="translate(30,60)"/>
<path d="M0 0 C3.3 0 6.6 0 10 0 C8.45425083 3.09149833 6.88216781 5.87028325 5 8.75 C4.484375 9.54921875 3.96875 10.3484375 3.4375 11.171875 C2.7259375 12.07679688 2.7259375 12.07679688 2 13 C1.34 13 0.68 13 0 13 C0 8.71 0 4.42 0 0 Z " fill="#F0EFED" transform="translate(300,225)"/>
<path d="M0 0 C3.3 0 6.6 0 10 0 C10 3.96 10 7.92 10 12 C6.05124418 10.68374806 5.45007287 8.94634602 3.3125 5.4375 C2.68988281 4.42558594 2.06726563 3.41367188 1.42578125 2.37109375 C0.95527344 1.58863281 0.48476563 0.80617187 0 0 Z " fill="#F0EFEE" transform="translate(20,150)"/>
<path d="M0 0 C-0.33 1.65 -0.66 3.3 -1 5 C-5.95 5 -10.9 5 -16 5 C-16 3.35 -16 1.7 -16 0 C-15.32453125 0.01160156 -14.6490625 0.02320313 -13.953125 0.03515625 C-13.06109375 0.04417969 -12.1690625 0.05320312 -11.25 0.0625 C-10.36828125 0.07410156 -9.4865625 0.08570313 -8.578125 0.09765625 C-6.0375963 0.09271615 -6.0375963 0.09271615 -3.796875 -0.56640625 C-2 -1 -2 -1 0 0 Z " fill="#F1F0EF" transform="translate(121,340)"/>
<path d="M0 0 C4 1 4 1 5.484375 3.03125 C5.90203125 3.8459375 6.3196875 4.660625 6.75 5.5 C7.17796875 6.3146875 7.6059375 7.129375 8.046875 7.96875 C9 10 9 10 9 11 C6.03 11 3.06 11 0 11 C0 7.37 0 3.74 0 0 Z " fill="#FEFDFA" transform="translate(240,124)"/>
<path d="M0 0 C1.65 0 3.3 0 5 0 C4.67515625 0.85658203 4.67515625 0.85658203 4.34375 1.73046875 C1.1567069 11.01125629 0.5420262 20.70669541 4 30 C2.68 30 1.36 30 0 30 C0 20.1 0 10.2 0 0 Z " fill="#FEFCFA" transform="translate(0,195)"/>
<path d="M0 0 C5.28 0 10.56 0 16 0 C14.02 0.99 14.02 0.99 12 2 C10.65732311 2.81819373 9.32395292 3.65184266 8 4.5 C5.36049273 6.19093434 2.82606825 7.58696587 0 9 C0 6.03 0 3.06 0 0 Z " fill="#FDFBF8" transform="translate(150,0)"/>
<path d="M0 0 C0.99 0 1.98 0 3 0 C3 8.25 3 16.5 3 25 C2.67 25 2.34 25 2 25 C-1.11179845 16.38541673 -1.09510025 9.03787554 0 0 Z " fill="#EFEFEF" transform="translate(345,180)"/>
<path d="M0 0 C4.95 0 9.9 0 15 0 C15.22786458 2.01822917 15.45572917 4.03645833 15.68359375 6.0546875 C15.91292961 8.07404316 15.91292961 8.07404316 17 10 C14.26473045 8.7964814 12.0002847 7.28541355 9.625 5.5 C6.56519768 3.25966958 3.69007491 1.9900201 0 1 C0 0.67 0 0.34 0 0 Z " fill="#FEFBF5" transform="translate(180,0)"/>
<path d="M0 0 C0.33 0 0.66 0 1 0 C1.02578125 0.83402344 1.0515625 1.66804687 1.078125 2.52734375 C1.45176283 9.94065806 2.5940013 15.44345251 6 22 C6.33 22.99 6.66 23.98 7 25 C4.69 25 2.38 25 0 25 C0 16.75 0 8.5 0 0 Z " fill="#FCF7EE" transform="translate(0,140)"/>
<path d="M0 0 C7.26 0.66 14.52 1.32 22 2 C22 2.66 22 3.32 22 4 C14.74 4 7.48 4 0 4 C0 2.68 0 1.36 0 0 Z " fill="#FAF8F5" transform="translate(270,71)"/>
<path d="M0 0 C0 3.3 0 6.6 0 10 C-3.3 10 -6.6 10 -10 10 C-1.50943396 0 -1.50943396 0 0 0 Z " fill="#FFFFFF" transform="translate(255,245)"/>
<path d="M0 0 C4.95 0 9.9 0 15 0 C11.16365974 2.87725519 9.26671312 3.65651114 4.75 4.6875 C3.67234375 4.93886719 2.5946875 5.19023437 1.484375 5.44921875 C0.25460938 5.72185547 0.25460938 5.72185547 -1 6 C-0.67 4.02 -0.34 2.04 0 0 Z " fill="#FEFDFD" transform="translate(195,255)"/>
<path d="M0 0 C0.66 0 1.32 0 2 0 C2 2.97 2 5.94 2 9 C-1.3 9 -4.6 9 -8 9 C-2.25 2.25 -2.25 2.25 0 0 Z " fill="#FEFEFD" transform="translate(118,111)"/>
<path d="M0 0 C0 3.3 0 6.6 0 10 C-2.31 10 -4.62 10 -7 10 C-6.67506385 6.4257023 -6.36129314 4.44287547 -4.0625 1.625 C-2 0 -2 0 0 0 Z " fill="#FEFDFC" transform="translate(105,35)"/>
<path d="M0 0 C0 1.32 0 2.64 0 4 C-4.95 4 -9.9 4 -15 4 C-15 3.01 -15 2.02 -15 1 C-9.92928099 0.28832014 -5.11791642 -0.10662326 0 0 Z " fill="#FFFFFF" transform="translate(195,281)"/>
<path d="M0 0 C1.98 0 3.96 0 6 0 C6 4.62 6 9.24 6 14 C5.34 14 4.68 14 4 14 C2.68 9.38 1.36 4.76 0 0 Z " fill="#F1EEEA" transform="translate(264,30)"/>
<path d="M0 0 C3.3 0 6.6 0 10 0 C8 4 8 4 5 6 C1.8125 6.125 1.8125 6.125 -1 6 C-0.67 4.02 -0.34 2.04 0 0 Z " fill="#FEFEFD" transform="translate(135,15)"/>
<path d="M0 0 C5.01180724 3.75885543 4.95302518 5.09886921 6 11 C5.67 11.33 5.34 11.66 5 12 C3.35 12 1.7 12 0 12 C0 8.04 0 4.08 0 0 Z " fill="#F0EFEE" transform="translate(75,303)"/>
<path d="M0 0 C2.97 0 5.94 0 9 0 C8.06862408 1.29608947 7.1296434 2.58671632 6.1875 3.875 C5.66542969 4.59429687 5.14335937 5.31359375 4.60546875 6.0546875 C3 8 3 8 0 10 C0 6.7 0 3.4 0 0 Z " fill="#FEFEFD" transform="translate(255,285)"/>
<path d="M0 0 C1.4540625 0.0309375 1.4540625 0.0309375 2.9375 0.0625 C2.9375 3.6925 2.9375 7.3225 2.9375 11.0625 C2.2775 11.0625 1.6175 11.0625 0.9375 11.0625 C-0.7125 7.7625 -2.3625 4.4625 -4.0625 1.0625 C-3.0625 0.0625 -3.0625 0.0625 0 0 Z " fill="#EFEFEE" transform="translate(267.0625,119.9375)"/>
<path d="M0 0 C2.97 0 5.94 0 9 0 C9 2.64 9 5.28 9 8 C5.56247993 6.4722133 2.81046312 4.49818944 0 2 C0 1.34 0 0.68 0 0 Z " fill="#F0EDE9" transform="translate(36,225)"/>
<path d="M0 0 C0.99 0 1.98 0 3 0 C3 4.95 3 9.9 3 15 C2.01 15 1.02 15 0 15 C0 10.05 0 5.1 0 0 Z " fill="#FFFFFF" transform="translate(345,315)"/>
<path d="M0 0 C0.99 0 1.98 0 3 0 C3 4.95 3 9.9 3 15 C2.01 15 1.02 15 0 15 C0 10.05 0 5.1 0 0 Z " fill="#FFFFFF" transform="translate(345,285)"/>
<path d="M0 0 C0.99 0 1.98 0 3 0 C3 4.95 3 9.9 3 15 C2.01 15 1.02 15 0 15 C0 10.05 0 5.1 0 0 Z " fill="#FFFFFF" transform="translate(345,255)"/>
<path d="M0 0 C0.99 0 1.98 0 3 0 C3 4.95 3 9.9 3 15 C2.01 15 1.02 15 0 15 C0 10.05 0 5.1 0 0 Z " fill="#FFFFFF" transform="translate(345,225)"/>
<path d="M0 0 C0.99 0 1.98 0 3 0 C3 4.95 3 9.9 3 15 C2.01 15 1.02 15 0 15 C0 10.05 0 5.1 0 0 Z " fill="#FFFFFF" transform="translate(345,165)"/>
<path d="M0 0 C0.99 0 1.98 0 3 0 C3 4.95 3 9.9 3 15 C2.01 15 1.02 15 0 15 C0 10.05 0 5.1 0 0 Z " fill="#FFFFFF" transform="translate(345,105)"/>
<path d="M0 0 C0.99 0 1.98 0 3 0 C3 4.95 3 9.9 3 15 C2.01 15 1.02 15 0 15 C0 10.05 0 5.1 0 0 Z " fill="#EFEFEF" transform="translate(345,90)"/>
<path d="M0 0 C0.99 0 1.98 0 3 0 C3 4.95 3 9.9 3 15 C2.01 15 1.02 15 0 15 C0 10.05 0 5.1 0 0 Z " fill="#EFEFEF" transform="translate(345,60)"/>
<path d="M0 0 C0.99 0 1.98 0 3 0 C3 4.95 3 9.9 3 15 C2.01 15 1.02 15 0 15 C0 10.05 0 5.1 0 0 Z " fill="#EFEFEF" transform="translate(345,30)"/>
<path d="M0 0 C0.99 0 1.98 0 3 0 C3 4.95 3 9.9 3 15 C2.01 15 1.02 15 0 15 C0 10.05 0 5.1 0 0 Z " fill="#EFEFEF" transform="translate(345,0)"/>
<path d="M0 0 C4.62 0 9.24 0 14 0 C14 0.99 14 1.98 14 3 C9.05 3 4.1 3 -1 3 C-0.67 2.01 -0.34 1.02 0 0 Z " fill="#EFEEED" transform="translate(166,282)"/>
<path d="M0 0 C2 1 2 1 3.125 4.1875 C3.91680237 7.63749602 4.1714979 10.484293 4 14 C2.68 14 1.36 14 0 14 C0 9.38 0 4.76 0 0 Z " fill="#F0F0EF" transform="translate(255,151)"/>
<path d="M0 0 C4.05281712 1.22527029 7.44360764 2.69880494 11 5 C10.67 5.66 10.34 6.32 10 7 C6.7 6.67 3.4 6.34 0 6 C0 4.02 0 2.04 0 0 Z " fill="#FEFBF6" transform="translate(210,99)"/>
<path d="M0 0 C3.63094642 2.64960955 5.89851796 5.01824456 8 9 C5.36 9 2.72 9 0 9 C0 6.03 0 3.06 0 0 Z " fill="#EFEFEF" transform="translate(180,21)"/>
<path d="M0 0 C2.64 0 5.28 0 8 0 C6.49776416 4.20626034 3.71449966 5.73900021 0 8 C0 5.36 0 2.72 0 0 Z " fill="#F0EEEB" transform="translate(105,90)"/>
<path d="M0 0 C2.32472205 2.85306797 3.7508258 5.54074837 5 9 C4 10 4 10 1.4375 10.0625 C0.633125 10.041875 -0.17125 10.02125 -1 10 C-1.02689216 8.52093108 -1.04634621 7.04172517 -1.0625 5.5625 C-1.07410156 4.73878906 -1.08570313 3.91507813 -1.09765625 3.06640625 C-1 1 -1 1 0 0 Z " fill="#F0EEEB" transform="translate(316,185)"/>
<path d="M0 0 C2.64 0 5.28 0 8 0 C8 2.97 8 5.94 8 9 C3.125 4.375 3.125 4.375 2 1 C1.34 0.67 0.68 0.34 0 0 Z " fill="#FEFCF9" transform="translate(337,120)"/>
<path d="M0 0 C2.97 0 5.94 0 9 0 C9 1.98 9 3.96 9 6 C5.32579134 5.69381595 4.21864487 5.24228216 1.6875 2.4375 C1.130625 1.633125 0.57375 0.82875 0 0 Z " fill="#FEFEFE" transform="translate(201,15)"/>
<path d="M0 0 C1.33897583 0.95043374 2.67105427 1.91059147 4 2.875 C5.11375 3.67550781 5.11375 3.67550781 6.25 4.4921875 C6.8275 4.98976562 7.405 5.48734375 8 6 C8 6.66 8 7.32 8 8 C5.36 8 2.72 8 0 8 C0 5.36 0 2.72 0 0 Z " fill="#F1EDE7" transform="translate(150,202)"/>
<path d="M0 0 C3.96 0 7.92 0 12 0 C12 1.65 12 3.3 12 5 C10.37276701 4.54965877 8.74826336 4.08944646 7.125 3.625 C5.76761719 3.24214844 5.76761719 3.24214844 4.3828125 2.8515625 C2 2 2 2 0 0 Z " fill="#FEFCF9" transform="translate(138,255)"/>
<path d="M0 0 C2.31 0 4.62 0 7 0 C7 2.97 7 5.94 7 9 C4.03595495 6.19195732 1.55500981 3.81684226 0 0 Z " fill="#FDFBF7" transform="translate(308,60)"/>
<path d="M0 0 C2.31 0 4.62 0 7 0 C7 0.99 7 1.98 7 3 C2.77777778 6 2.77777778 6 0 6 C0 4.02 0 2.04 0 0 Z " fill="#F0EFEE" transform="translate(240,315)"/>
<path d="M0 0 C3.3 1.65 6.6 3.3 10 5 C10 5.33 10 5.66 10 6 C6.7 6 3.4 6 0 6 C0 4.02 0 2.04 0 0 Z " fill="#F0EEEA" transform="translate(315,129)"/>
<path d="M0 0 C1.65 0 3.3 0 5 0 C4.01 3.3 3.02 6.6 2 10 C1.34 10 0.68 10 0 10 C0 6.7 0 3.4 0 0 Z " fill="#F1EDE7" transform="translate(0,195)"/>
<path d="M0 0 C2.31 0 4.62 0 7 0 C5.35 2.64 3.7 5.28 2 8 C1.34 7.67 0.68 7.34 0 7 C0 4.69 0 2.38 0 0 Z " fill="#EFEFED" transform="translate(90,105)"/>
<path d="M0 0 C2.64 0 5.28 0 8 0 C7.67 0.99 7.34 1.98 7 3 C3.4375 4.6875 3.4375 4.6875 0 6 C0 4.02 0 2.04 0 0 Z " fill="#F0F0EE" transform="translate(90,15)"/>
<path d="M0 0 C0.99 0 1.98 0 3 0 C3 3.3 3 6.6 3 10 C2.01 10 1.02 10 0 10 C0 6.7 0 3.4 0 0 Z " fill="#FFFFFF" transform="translate(345,345)"/>
<path d="M0 0 C2.88575819 0.39803561 3.82189513 0.79009069 5.75 3.0625 C6.1625 3.701875 6.575 4.34125 7 5 C6 6 6 6 2.9375 6.0625 C1.4834375 6.0315625 1.4834375 6.0315625 0 6 C0 4.02 0 2.04 0 0 Z " fill="#F1EDE6" transform="translate(135,189)"/>
<path d="M0 0 C0.33 0 0.66 0 1 0 C1 2.64 1 5.28 1 8 C-0.98 8 -2.96 8 -5 8 C-2.25 2.25 -2.25 2.25 0 0 Z " fill="#FEFCF9" transform="translate(104,127)"/>
<path d="M0 0 C0.99 0.33 1.98 0.66 3 1 C4.1875 4.0625 4.1875 4.0625 5 7 C3.35 7.33 1.7 7.66 0 8 C0 5.36 0 2.72 0 0 Z " fill="#F1EEEA" transform="translate(75,217)"/>
<path d="M0 0 C3.96 0 7.92 0 12 0 C9.14521674 1.90318884 7.58058692 2.4619099 4.3125 3.125 C3.50425781 3.29257813 2.69601563 3.46015625 1.86328125 3.6328125 C1.24839844 3.75398438 0.63351563 3.87515625 0 4 C0 2.68 0 1.36 0 0 Z " fill="#FDFDFD" transform="translate(135,75)"/>
<path d="M0 0 C1.98 0 3.96 0 6 0 C6 0.99 6 1.98 6 3 C2.66666667 6 2.66666667 6 0 6 C0 4.02 0 2.04 0 0 Z " fill="#F0EEEB" transform="translate(225,240)"/>
<path d="M0 0 C0.33 0 0.66 0 1 0 C1 2.64 1 5.28 1 8 C-0.98 8.33 -2.96 8.66 -5 9 C-3.75471468 5.55151758 -2.38532951 2.80016942 0 0 Z " fill="#FEFCF9" transform="translate(344,157)"/>
<path d="M0 0 C0 1.98 0 3.96 0 6 C-2.31 6 -4.62 6 -7 6 C-5.81636731 2.44910192 -3.99368042 0 0 0 Z " fill="#F1EDE7" transform="translate(165,24)"/>
<path d="M0 0 C0.99 0 1.98 0 3 0 C3.3367697 4.93928888 3.16130459 5.78492722 0 10 C0 6.7 0 3.4 0 0 Z " fill="#FEF7ED" transform="translate(255,195)"/>
<path d="M0 0 C2.475 0.495 2.475 0.495 5 1 C3.69593116 3.01920337 2.36176581 5.01924973 1 7 C0.67 7 0.34 7 0 7 C0 4.69 0 2.38 0 0 Z " fill="#EFEFEF" transform="translate(240,225)"/>
<path d="M0 0 C2.64 0 5.28 0 8 0 C5.37801226 2.15377564 3.35595828 3.40072174 0 4 C0 2.68 0 1.36 0 0 Z " fill="#FEFDFB" transform="translate(195,315)"/>
<path d="M0 0 C0 1.32 0 2.64 0 4 C-2.31 4 -4.62 4 -7 4 C-3.375 0 -3.375 0 0 0 Z " fill="#FEFBF7" transform="translate(135,101)"/>
<path d="M0 0 C1.98 0 3.96 0 6 0 C6 1.65 6 3.3 6 5 C1.125 2.25 1.125 2.25 0 0 Z " fill="#FDFAF6" transform="translate(84,285)"/>
<path d="M0 0 C0.99 0 1.98 0 3 0 C3 3.3 3 6.6 3 10 C2.67 10 2.34 10 2 10 C1.34 6.7 0.68 3.4 0 0 Z " fill="#FCF4E9" transform="translate(345,195)"/>
<path d="M0 0 C1.65 0 3.3 0 5 0 C5 1.65 5 3.3 5 5 C2.5 3.625 2.5 3.625 0 2 C0 1.34 0 0.68 0 0 Z " fill="#F0EFEC" transform="translate(235,90)"/>
</svg>
